<svg xmlns="http://www.w3.org/2000/svg" xmlns:xlink="http://www.w3.org/1999/xlink" width="500" zoomAndPan="magnify" viewBox="0 0 375 374.999991" height="500" preserveAspectRatio="xMidYMid meet" version="1.0"><defs><g/></defs><g fill="#facc15" fill-opacity="1"><g transform="translate(30.617786, 256.499983)"><g><path d="M 53.640625 0 L 11.34375 0 L 53.8125 -117.1875 L 96.125 -117.1875 L 75.953125 -61.5625 L 151.5625 -117.1875 L 199.796875 -117.1875 L 199.4375 -116.09375 L 120.78125 -59.046875 L 157.6875 -1.078125 L 157.3125 0 L 109.078125 0 L 74.15625 -56.515625 Z M 53.640625 0 "/></g></g></g><g fill="#facc15" fill-opacity="1"><g transform="translate(194.237776, 256.499983)"><g><path d="M 21.78125 -42.84375 L 106.734375 -117.1875 L 167.765625 -117.1875 L 143.09375 -49.140625 L 157.859375 -49.140625 L 150.296875 -28.4375 L 133.203125 -22.140625 L 125.28125 0 L 82.984375 0 L 90.546875 -20.875 L 13.859375 -20.875 Z M 115.015625 -88.375 L 68.765625 -47.15625 L 100.078125 -47.15625 Z M 115.015625 -88.375 "/></g></g></g></svg>