<svg xmlns="http://www.w3.org/2000/svg" xmlns:xlink="http://www.w3.org/1999/xlink" width="500" zoomAndPan="magnify" viewBox="0 0 375 374.999991" height="500" preserveAspectRatio="xMidYMid meet" version="1.0"><defs><clipPath id="4e4a8dbcb8"><path d="M 40.898438 33.957031 L 333.800781 33.957031 L 333.800781 326.859375 L 40.898438 326.859375 Z M 40.898438 33.957031 " clip-rule="nonzero"/></clipPath><clipPath id="4d3f9083e7"><path d="M 40.898438 142.042969 L 114.804688 142.042969 L 114.804688 284.9375 L 40.898438 284.9375 Z M 40.898438 142.042969 " clip-rule="nonzero"/></clipPath><clipPath id="87ee8e7305"><path d="M 259.722656 142.042969 L 333.625 142.042969 L 333.625 284.9375 L 259.722656 284.9375 Z M 259.722656 142.042969 " clip-rule="nonzero"/></clipPath><clipPath id="c710b9ea05"><path d="M 150.3125 0 L 224.214844 0 L 224.214844 111.023438 L 150.3125 111.023438 Z M 150.3125 0 " clip-rule="nonzero"/></clipPath><clipPath id="7073c0a119"><path d="M 14 27.617188 L 366 27.617188 L 366 332.796875 L 14 332.796875 Z M 14 27.617188 " clip-rule="nonzero"/></clipPath></defs><rect x="-37.5" width="450" fill="#ffffff" y="-37.499999" height="449.999989" fill-opacity="1"/><rect x="-37.5" width="450" fill="#facc15" y="-37.499999" height="449.999989" fill-opacity="1"/><g clip-path="url(#4e4a8dbcb8)"><path fill="#ffffff" d="M 187.261719 33.957031 C 106.476562 33.957031 40.898438 99.535156 40.898438 180.320312 C 40.898438 261.105469 106.476562 326.679688 187.261719 326.679688 C 268.046875 326.679688 333.621094 261.105469 333.621094 180.320312 C 333.621094 99.535156 268.046875 33.957031 187.261719 33.957031 Z M 187.261719 42.089844 C 263.652344 42.089844 325.492188 103.929688 325.492188 180.320312 C 325.492188 256.710938 263.652344 318.550781 187.261719 318.550781 C 110.871094 318.550781 49.03125 256.710938 49.03125 180.320312 C 49.03125 103.929688 110.871094 42.089844 187.261719 42.089844 Z M 187.261719 42.089844 " fill-opacity="1" fill-rule="nonzero"/></g><g clip-path="url(#4d3f9083e7)"><path fill="#facc15" d="M 40.898438 142.042969 L 114.804688 142.042969 L 114.804688 284.941406 L 40.898438 284.941406 Z M 40.898438 142.042969 " fill-opacity="1" fill-rule="nonzero"/></g><g clip-path="url(#87ee8e7305)"><path fill="#facc15" d="M 259.722656 142.042969 L 333.625 142.042969 L 333.625 284.941406 L 259.722656 284.941406 Z M 259.722656 142.042969 " fill-opacity="1" fill-rule="nonzero"/></g><g clip-path="url(#c710b9ea05)"><path fill="#facc15" d="M 150.3125 -12.523438 L 224.214844 -12.523438 L 224.214844 111.035156 L 150.3125 111.035156 Z M 150.3125 -12.523438 " fill-opacity="1" fill-rule="nonzero"/></g><g clip-path="url(#7073c0a119)"><path fill="#000000" d="M 186.363281 28.722656 C 183.792969 30.21875 182.371094 32.003906 181.621094 34.675781 C 181.191406 36.199219 180.78125 40.949219 180.4375 48.394531 C 180.335938 50.632812 180.148438 52.730469 180.027344 53.058594 C 179.875 53.46875 179.386719 53.753906 178.449219 53.984375 C 174.234375 55.015625 170.359375 57.226562 167.527344 60.214844 C 165.371094 62.492188 164.332031 64.019531 162.902344 67.011719 C 162.265625 68.34375 161.457031 69.601562 161.074219 69.851562 C 160.699219 70.097656 158.398438 70.753906 155.960938 71.308594 C 153.523438 71.863281 150.78125 72.632812 149.863281 73.015625 C 142.480469 76.105469 138.699219 82.765625 138.628906 92.820312 L 138.597656 96.960938 L 136.949219 98.578125 C 135.15625 100.339844 134.023438 102.410156 133.226562 105.386719 C 132.554688 107.894531 132.558594 113.496094 133.230469 117.882812 C 133.695312 120.933594 133.71875 122.007812 133.464844 129.113281 C 133.246094 135.25 133.058594 137.527344 132.609375 139.5 C 131.765625 143.21875 131.425781 148.261719 131.753906 152.34375 C 132.222656 158.261719 132.984375 161.65625 136.03125 171.386719 C 136.738281 173.636719 137.515625 176.636719 137.757812 178.050781 L 138.203125 180.617188 L 137.464844 182.078125 C 135.710938 185.535156 135.226562 188.460938 135.695312 192.753906 C 135.890625 194.542969 135.902344 195.660156 135.730469 195.832031 C 135.582031 195.980469 134.085938 196.289062 132.402344 196.515625 C 118.398438 198.410156 112.925781 199.347656 106.933594 200.878906 C 105.117188 201.34375 103.347656 201.683594 103.003906 201.632812 C 102.4375 201.554688 102.324219 201.222656 101.742188 197.894531 C 98.234375 177.820312 94.65625 166.027344 89.265625 156.777344 C 86.625 152.238281 84.9375 151.515625 80.300781 152.933594 C 79 153.332031 77.558594 153.738281 77.09375 153.839844 C 76.632812 153.941406 74.292969 154.566406 71.898438 155.230469 C 69.503906 155.894531 63.292969 157.519531 58.101562 158.84375 C 49.15625 161.121094 37.242188 164.265625 29.484375 166.398438 C 27.550781 166.929688 25.085938 167.582031 24.007812 167.84375 C 21.503906 168.453125 19.847656 169.414062 18.796875 170.863281 C 17.890625 172.113281 17.613281 172.960938 16.8125 176.9375 C 16.140625 180.261719 16.160156 181.226562 16.839844 178.242188 C 17.4375 175.613281 18.441406 172.613281 19.023438 171.71875 C 19.25 171.371094 19.890625 170.980469 20.457031 170.847656 C 21.019531 170.714844 23.410156 170.125 25.769531 169.539062 C 28.128906 168.957031 30.117188 168.53125 30.183594 168.601562 C 30.417969 168.835938 28.640625 175.390625 28.214844 175.859375 C 27.726562 176.398438 26.957031 176.652344 21.390625 178.101562 C 19.179688 178.675781 17.253906 179.265625 17.109375 179.410156 C 16.964844 179.550781 16.644531 181.433594 16.398438 183.589844 C 16.148438 185.742188 15.894531 187.558594 15.832031 187.625 C 15.632812 187.832031 15.710938 186.171875 16.027344 183.625 C 16.5 179.761719 16.15625 180.484375 15.480469 184.769531 C 14.957031 188.101562 14.875 189.789062 14.875 197.085938 C 14.875 202.210938 15.035156 207.183594 15.273438 209.71875 C 15.492188 212.015625 15.820312 215.539062 16 217.546875 C 16.851562 227.089844 19.4375 243.027344 21.328125 250.394531 C 26.101562 268.996094 31.015625 279.5 35.582031 280.867188 C 36.457031 281.128906 36.976562 281.101562 38.339844 280.726562 C 39.261719 280.472656 41.882812 279.769531 44.164062 279.160156 C 46.445312 278.550781 50.113281 277.5625 52.3125 276.960938 C 54.507812 276.363281 58.648438 275.273438 61.503906 274.542969 C 64.363281 273.8125 70.113281 272.292969 74.285156 271.167969 C 78.457031 270.042969 83.640625 268.652344 85.800781 268.082031 C 87.964844 267.507812 90.558594 266.8125 91.5625 266.535156 C 92.566406 266.253906 94.628906 265.75 96.148438 265.414062 C 101.148438 264.300781 102.160156 262.605469 103.792969 252.589844 C 104.039062 251.074219 104.382812 249.011719 104.554688 248.011719 C 104.742188 246.902344 104.871094 242.039062 104.878906 235.65625 C 104.890625 226.800781 104.789062 223.953125 104.234375 217.746094 C 103.871094 213.683594 103.652344 210.285156 103.746094 210.191406 C 104.414062 209.519531 133.410156 204.773438 136.839844 204.773438 C 137.15625 204.773438 137.394531 205.058594 137.496094 205.546875 C 138.222656 209.011719 138.710938 209.691406 140.4375 209.648438 C 141.03125 209.632812 141.9375 209.367188 142.449219 209.058594 C 143.285156 208.558594 143.484375 208.535156 144.277344 208.875 C 144.769531 209.082031 145.25 209.378906 145.34375 209.535156 C 145.441406 209.691406 145.835938 212.632812 146.21875 216.070312 C 146.601562 219.507812 147.105469 223.519531 147.339844 224.988281 C 147.921875 228.609375 147.894531 229.921875 147.199219 231.675781 C 146.875 232.5 146.351562 234.132812 146.035156 235.304688 C 145.722656 236.476562 145.21875 237.78125 144.917969 238.203125 C 144.617188 238.625 144.371094 239.023438 144.371094 239.082031 C 144.371094 239.144531 143.21875 240.386719 141.8125 241.847656 C 139.738281 244 139.027344 244.976562 138.035156 247.027344 C 136.730469 249.734375 136.054688 252.199219 135.761719 255.324219 C 135.632812 256.707031 135.675781 257.273438 135.902344 257.273438 C 136.078125 257.273438 136.222656 256.976562 136.222656 256.609375 C 136.222656 254.941406 137.160156 250.796875 137.894531 249.222656 C 138.453125 248.023438 139.382812 246.804688 140.886719 245.289062 C 142.15625 244.015625 142.789062 243.507812 142.402344 244.078125 C 142.03125 244.621094 141.277344 245.460938 140.722656 245.945312 C 138.976562 247.472656 137.617188 250.933594 137.109375 255.128906 C 136.984375 256.167969 136.992188 256.992188 137.128906 256.992188 C 137.261719 256.992188 137.289062 257.445312 137.183594 258 C 137.078125 258.550781 136.902344 259.972656 136.789062 261.15625 L 136.582031 263.3125 L 136.542969 260.410156 C 136.515625 258.226562 136.417969 257.539062 136.152344 257.625 C 135.878906 257.71875 135.796875 260.980469 135.777344 272.597656 C 135.75 287.453125 135.585938 291.921875 135.039062 292.578125 C 134.867188 292.785156 134.082031 292.929688 133.125 292.929688 C 131.652344 292.929688 131.429688 293.011719 130.769531 293.792969 C 130.128906 294.554688 130.042969 294.910156 130.035156 296.8125 C 130.023438 299.292969 130.046875 299.242188 126.179688 305.84375 C 124.78125 308.238281 123.027344 311.25 122.28125 312.539062 C 121.539062 313.828125 119.746094 316.355469 118.292969 318.152344 C 115.089844 322.125 114 324.261719 113.839844 326.859375 C 113.773438 327.890625 113.886719 329.355469 114.089844 330.128906 L 114.453125 331.535156 L 116.839844 332.167969 C 118.984375 332.738281 119.75 332.792969 124.285156 332.710938 L 129.339844 332.621094 L 133.835938 330.753906 C 138.941406 328.632812 139.417969 328.519531 145.773438 327.878906 C 148.324219 327.625 150.550781 327.296875 150.722656 327.152344 C 150.921875 326.992188 151.105469 325.121094 151.214844 322.195312 C 151.308594 319.609375 151.46875 316.328125 151.566406 314.898438 C 151.675781 313.269531 151.558594 310.160156 151.25 306.578125 C 150.675781 299.882812 150.804688 298.867188 152.902344 293.730469 C 154.199219 290.546875 155.128906 289 155.734375 289 C 155.941406 289 157.238281 288.433594 158.621094 287.742188 C 162.660156 285.722656 166.300781 281.625 168.867188 276.210938 L 169.789062 274.261719 L 169.769531 269.207031 C 169.730469 261.140625 168.375 252.539062 166.636719 249.34375 L 165.898438 247.992188 L 166.355469 245.964844 C 166.605469 244.851562 166.957031 243.019531 167.132812 241.894531 C 167.488281 239.652344 167.253906 239.941406 170.933594 237.226562 C 175.433594 233.902344 179.78125 229.359375 182.910156 224.707031 C 184.558594 222.261719 188 215.671875 189.621094 211.863281 C 189.835938 211.359375 190.089844 210.949219 190.183594 210.949219 C 190.347656 210.949219 192.832031 215.832031 194.636719 219.707031 C 197.433594 225.710938 203.128906 232.320312 210.03125 237.570312 C 213.910156 240.519531 215.414062 242.921875 214.875 245.289062 C 214.726562 245.9375 214.335938 247.855469 214.007812 249.554688 C 213.679688 251.253906 212.925781 254.601562 212.332031 256.992188 C 210.6875 263.652344 210.28125 270.597656 211.265625 275.382812 C 211.820312 278.089844 213.617188 281.296875 215.808594 283.496094 C 218.261719 285.957031 219.78125 286.972656 223.070312 288.332031 C 225.558594 289.363281 225.597656 289.398438 226.417969 291.019531 C 227.515625 293.195312 228.816406 297.113281 229.332031 299.816406 C 229.695312 301.71875 229.699219 302.289062 229.351562 304.277344 C 228.664062 308.214844 228.550781 310.742188 228.878906 314.886719 C 229.054688 317.09375 229.246094 320.707031 229.300781 322.917969 C 229.355469 325.125 229.515625 327.050781 229.660156 327.191406 C 229.800781 327.335938 231.9375 327.636719 234.40625 327.863281 C 240.429688 328.417969 241.0625 328.535156 243.664062 329.574219 C 244.902344 330.066406 247.050781 330.882812 248.441406 331.386719 C 249.832031 331.890625 251.089844 332.414062 251.234375 332.550781 C 251.382812 332.6875 253.679688 332.796875 256.34375 332.796875 C 261.371094 332.796875 265.304688 332.203125 266.203125 331.308594 C 266.464844 331.042969 266.601562 330.03125 266.640625 328 C 266.695312 325.21875 266.65625 324.984375 265.800781 323.25 C 265.304688 322.246094 264 320.363281 262.902344 319.066406 C 259.871094 315.496094 256.300781 309.953125 253.660156 304.722656 C 252.996094 303.410156 252.023438 301.75 251.5 301.035156 C 250.636719 299.855469 250.546875 299.554688 250.546875 297.804688 C 250.542969 294.046875 249.808594 292.933594 247.324219 292.925781 C 246.546875 292.921875 245.746094 292.816406 245.539062 292.6875 C 244.753906 292.1875 244.617188 288.300781 244.800781 271.734375 C 244.964844 256.855469 244.9375 254.941406 244.511719 252.921875 C 243.925781 250.128906 242.902344 247.511719 241.582031 245.421875 C 240.558594 243.804688 238.089844 241.457031 237.078125 241.136719 C 236.550781 240.96875 236.117188 240.183594 236.28125 239.6875 C 236.324219 239.554688 236.066406 238.976562 235.710938 238.40625 C 235.355469 237.832031 234.566406 235.765625 233.957031 233.816406 C 232.671875 229.695312 232.597656 228.402344 233.40625 224.242188 C 233.710938 222.671875 234.15625 218.945312 234.398438 215.960938 C 234.636719 212.972656 234.953125 210.246094 235.097656 209.902344 C 235.242188 209.554688 235.777344 209.101562 236.285156 208.890625 C 237.105469 208.550781 237.277344 208.566406 237.875 209.027344 C 238.882812 209.808594 240.84375 209.726562 241.699219 208.867188 C 242.074219 208.496094 242.460938 207.832031 242.558594 207.394531 C 243.136719 204.839844 243.28125 204.492188 243.769531 204.492188 C 244.554688 204.492188 249.773438 205.246094 257.429688 206.460938 C 261.292969 207.074219 265.652344 207.769531 267.121094 208 C 268.585938 208.234375 271.242188 208.773438 273.015625 209.203125 C 275.5625 209.820312 276.300781 210.109375 276.535156 210.578125 C 276.832031 211.171875 276.804688 211.835938 276.140625 219.511719 C 275.980469 221.367188 275.710938 226.128906 275.539062 230.101562 C 275.214844 237.789062 275.308594 239.394531 276.683594 249.695312 C 276.984375 251.933594 277.230469 254.402344 277.230469 255.183594 C 277.230469 256.6875 278.757812 261.679688 279.617188 262.988281 C 280.398438 264.179688 281.679688 264.777344 285.675781 265.816406 C 287.753906 266.355469 290.398438 267.058594 291.558594 267.375 C 292.714844 267.691406 295.246094 268.34375 297.175781 268.824219 C 299.105469 269.304688 303.089844 270.363281 306.023438 271.171875 C 311.9375 272.808594 318.652344 274.613281 325.265625 276.34375 C 327.660156 276.972656 332.75 278.3125 336.578125 279.324219 C 341.785156 280.699219 343.785156 281.113281 344.515625 280.976562 C 347.386719 280.441406 350.53125 276.136719 353.433594 268.773438 C 355.089844 264.578125 358.027344 255.289062 358.714844 252.082031 C 359.015625 250.691406 359.382812 249.175781 359.535156 248.710938 C 359.871094 247.675781 361.144531 241.464844 361.492188 239.167969 C 361.632812 238.238281 362.128906 235.082031 362.597656 232.148438 C 366.070312 210.414062 366.636719 188.996094 364.042969 177.402344 C 362.609375 170.984375 360.96875 168.964844 356.269531 167.835938 C 353.789062 167.238281 330.3125 161.035156 314.730469 156.859375 C 297.4375 152.222656 297.683594 152.285156 296.71875 152.277344 C 294.558594 152.265625 292.988281 153.578125 290.761719 157.265625 C 286.332031 164.597656 282.011719 179.054688 278.929688 196.882812 C 278.464844 199.570312 278.050781 201.804688 278.007812 201.84375 C 277.964844 201.886719 276.351562 201.546875 274.421875 201.089844 C 270.414062 200.136719 267.976562 199.710938 255.464844 197.753906 C 250.519531 196.980469 246.042969 196.277344 245.519531 196.1875 L 244.5625 196.027344 L 244.734375 192.246094 C 244.933594 187.816406 244.691406 186.195312 243.34375 182.9375 C 242.375 180.597656 242.371094 180.570312 242.6875 178.429688 C 242.863281 177.246094 243.75 174.003906 244.65625 171.222656 C 247.058594 163.871094 247.761719 160.882812 248.4375 155.140625 C 249.050781 149.914062 248.980469 146.355469 248.15625 141.605469 C 246.808594 133.824219 246.589844 123.328125 247.613281 115.214844 C 247.96875 112.378906 247.996094 111.167969 247.753906 108.921875 C 247.152344 103.40625 246.3125 101.347656 243.597656 98.714844 C 242.421875 97.578125 241.78125 96.738281 241.78125 96.328125 C 241.785156 95.984375 241.804688 94.25 241.828125 92.472656 C 241.941406 84.539062 238.699219 77.558594 233.433594 74.382812 C 231.589844 73.273438 225.492188 71.117188 222.363281 70.46875 C 221.152344 70.21875 219.796875 69.757812 219.355469 69.441406 C 218.863281 69.09375 217.914062 67.648438 216.925781 65.742188 C 213.742188 59.617188 209.5625 56.253906 202.488281 54.121094 C 200.386719 53.488281 200.371094 53.449219 199.992188 46.992188 C 199.261719 34.59375 198.785156 32.304688 196.484375 30.183594 C 194.625 28.472656 193.046875 27.898438 190.191406 27.902344 C 188.023438 27.90625 187.617188 27.992188 186.363281 28.722656 M 193.191406 29.171875 C 194.554688 29.578125 197.207031 31.613281 196.84375 31.976562 C 196.765625 32.054688 195.953125 31.671875 195.042969 31.121094 C 194.132812 30.570312 192.699219 29.921875 191.863281 29.679688 C 189.925781 29.113281 188.078125 29.476562 185.914062 30.839844 C 184.21875 31.910156 183.828125 31.902344 184.839844 30.820312 C 186.621094 28.914062 190.046875 28.242188 193.191406 29.171875 M 192.207031 41.398438 C 192.792969 42.039062 192.972656 42.492188 192.910156 43.152344 L 192.824219 44.042969 L 190.085938 44.121094 L 187.347656 44.203125 L 187.355469 43.421875 C 187.371094 42.375 187.910156 41.460938 188.910156 40.785156 C 189.996094 40.054688 191.1875 40.277344 192.207031 41.398438 M 199.105469 45.964844 C 199.609375 46.570312 199.859375 54.996094 199.429688 56.832031 C 198.929688 58.972656 197.90625 60.972656 196.28125 62.976562 L 194.894531 64.691406 L 190.230469 64.613281 C 186.535156 64.554688 185.539062 64.457031 185.4375 64.144531 C 185.332031 63.835938 185.535156 63.789062 186.394531 63.921875 C 186.996094 64.015625 188.15625 64.175781 188.972656 64.28125 L 190.457031 64.472656 L 190.375 55.472656 C 190.332031 50.523438 190.195312 46.375 190.074219 46.253906 C 189.949219 46.132812 189.253906 45.949219 188.527344 45.847656 C 187.800781 45.746094 189.8125 45.644531 193 45.625 C 197.539062 45.59375 198.863281 45.667969 199.105469 45.964844 M 197.40625 53.378906 C 196.53125 54.3125 196.054688 55.203125 196.054688 55.886719 C 196.058594 56.609375 196.628906 58.582031 196.789062 58.421875 C 197.046875 58.164062 198.507812 52.605469 198.316406 52.605469 C 198.210938 52.605469 197.800781 52.953125 197.40625 53.378906 M 183.460938 53.914062 C 184.015625 54.414062 184.148438 56.464844 183.695312 57.519531 C 183.496094 57.980469 183.445312 57.90625 183.421875 57.097656 C 183.402344 56.558594 183.207031 55.609375 182.984375 54.992188 C 182.371094 53.296875 182.488281 53.03125 183.460938 53.914062 M 205.039062 56.449219 C 210.457031 58.226562 214.21875 62.183594 215.539062 67.503906 C 215.792969 68.515625 215.996094 69.527344 215.996094 69.75 C 215.992188 69.972656 215.0625 70.640625 213.925781 71.234375 C 212.152344 72.167969 211.773438 72.273438 211.242188 71.988281 C 210.617188 71.65625 206.445312 66.21875 206.445312 65.742188 C 206.445312 65.601562 206.328125 65.558594 206.1875 65.648438 C 206.042969 65.738281 206.359375 66.910156 206.890625 68.257812 C 207.417969 69.609375 207.851562 70.75 207.851562 70.800781 C 207.851562 70.847656 206.996094 70.804688 205.953125 70.703125 C 203.714844 70.480469 200.605469 70.902344 197.59375 71.828125 C 195.863281 72.363281 195.480469 72.410156 195.613281 72.070312 C 195.699219 71.839844 196.664062 69.042969 197.75 65.847656 C 198.839844 62.65625 199.800781 59.855469 199.890625 59.625 C 200.078125 59.136719 200.417969 60.109375 201.542969 64.335938 C 201.960938 65.925781 202.351562 67.179688 202.402344 67.128906 C 202.457031 67.074219 202.125 64.582031 201.664062 61.589844 C 201.203125 58.59375 200.828125 55.988281 200.828125 55.796875 C 200.828125 55.332031 202.339844 55.5625 205.039062 56.449219 M 170.464844 59.582031 C 168.855469 61.105469 166.789062 63.371094 165.867188 64.617188 C 164.945312 65.863281 164.089844 66.820312 163.964844 66.742188 C 163.71875 66.589844 165.625 63.765625 167.523438 61.464844 C 168.5 60.285156 172.75 56.816406 173.226562 56.816406 C 173.3125 56.816406 172.070312 58.0625 170.464844 59.582031 M 180.550781 58.460938 C 180.644531 59.710938 179.027344 65.519531 178.589844 65.519531 C 178.457031 65.519531 178.410156 65.234375 178.488281 64.886719 C 178.695312 63.976562 179.761719 57.636719 179.761719 57.320312 C 179.761719 57.171875 179.921875 57.101562 180.113281 57.167969 C 180.304688 57.230469 180.503906 57.8125 180.550781 58.460938 M 173.863281 67.210938 C 173.863281 67.367188 173.492188 68.3125 173.042969 69.304688 C 172.410156 70.699219 172.054688 71.15625 171.484375 71.296875 C 171.078125 71.398438 170.675781 71.410156 170.585938 71.320312 C 170.398438 71.132812 173.332031 66.9375 173.652344 66.929688 C 173.769531 66.925781 173.863281 67.054688 173.863281 67.210938 M 222.316406 71.703125 C 224.253906 72.625 227.371094 75.300781 229.296875 77.695312 C 230.980469 79.792969 232.664062 83.3125 233.277344 86.015625 C 233.574219 87.324219 233.761719 89.394531 233.769531 91.488281 C 233.785156 94.328125 233.695312 95.066406 233.199219 96.183594 C 231.925781 99.042969 229.351562 99.402344 225.78125 97.222656 C 222.839844 95.429688 222.300781 94.53125 221.582031 90.226562 C 220.5 83.710938 218.558594 79.230469 214.988281 74.96875 C 214 73.789062 213.1875 72.761719 213.1875 72.683594 C 213.1875 72.398438 216.105469 71.085938 217.21875 70.871094 C 218.898438 70.542969 220.394531 70.789062 222.316406 71.703125 M 163.164062 71.394531 C 164.382812 71.421875 164.183594 71.636719 162.75 71.839844 C 160.195312 72.203125 158.769531 72.605469 157.09375 73.429688 C 155.179688 74.371094 152.230469 76.902344 150.5 79.089844 C 149.230469 80.695312 149.167969 80.609375 150.167969 78.636719 C 151.253906 76.496094 154.3125 73.5625 156.550781 72.515625 C 158.3125 71.691406 160.441406 71.1875 161.644531 71.3125 C 161.953125 71.34375 162.636719 71.378906 163.164062 71.394531 M 207.644531 72.128906 C 211.085938 72.644531 212.53125 73.289062 214.007812 74.964844 C 215.773438 76.972656 218.320312 82.1875 219.253906 85.722656 C 220.410156 90.082031 220.28125 93.480469 218.84375 96.554688 C 217.71875 98.953125 216.496094 100.421875 214.527344 101.734375 C 212.21875 103.277344 210.480469 103.59375 206.585938 103.171875 C 202.765625 102.757812 200.695312 102.234375 198.160156 101.046875 C 195.554688 99.828125 193.847656 98.535156 193.386719 97.433594 C 192.949219 96.386719 192.226562 80.855469 192.523438 78.875 C 192.742188 77.429688 194 75.5625 195.289062 74.773438 C 197.023438 73.714844 200.421875 72.460938 202.515625 72.109375 C 203.671875 71.914062 204.652344 71.742188 204.691406 71.726562 C 204.734375 71.710938 206.058594 71.890625 207.644531 72.128906 M 232.421875 75.296875 C 235.992188 77.21875 238.984375 81.148438 239.996094 85.246094 C 240.480469 87.214844 240.636719 91.425781 240.277344 92.894531 C 239.839844 94.691406 237.519531 98.367188 236.824219 98.367188 C 236.726562 98.367188 236.636719 96.632812 236.632812 94.507812 C 236.617188 88.613281 235.460938 84.367188 232.570312 79.558594 C 231.316406 77.472656 228.816406 74.226562 228.285156 73.988281 C 228.171875 73.9375 228.074219 73.78125 228.074219 73.644531 C 228.074219 73.339844 230.476562 74.253906 232.421875 75.296875 M 149.4375 74.449219 C 143.894531 78.277344 140.910156 83.820312 139.878906 92.191406 C 139.636719 94.160156 139.628906 94.089844 139.734375 91.070312 C 139.871094 87.148438 140.390625 84.980469 141.980469 81.664062 C 143.414062 78.675781 145.441406 76.355469 147.863281 74.925781 C 149.5625 73.925781 150.691406 73.582031 149.4375 74.449219 M 180.460938 75.066406 C 184.457031 75.921875 185.128906 76.203125 186.34375 77.511719 C 187.757812 79.039062 187.941406 80.238281 187.730469 86.648438 C 187.625 89.855469 187.507812 92.445312 187.46875 92.40625 C 187.425781 92.367188 187.25 90.058594 187.078125 87.277344 C 186.671875 80.871094 186.464844 80.054688 184.816406 78.40625 C 183.648438 77.238281 183.136719 76.984375 179.535156 75.785156 C 177.34375 75.054688 175.546875 74.332031 175.546875 74.179688 C 175.546875 74.03125 175.78125 73.980469 176.066406 74.070312 C 176.347656 74.160156 178.328125 74.605469 180.460938 75.066406 M 244.378906 100.667969 C 246.125 102.414062 247.003906 105.601562 247 110.160156 C 247 113.230469 246.765625 114.425781 245.570312 117.433594 C 244.796875 119.375 244.792969 118.890625 245.648438 124.617188 L 245.816406 125.742188 L 244.652344 123.96875 C 243.898438 122.820312 243.40625 121.6875 243.25 120.742188 C 243.117188 119.941406 242.414062 116.441406 241.691406 112.96875 C 240.054688 105.113281 239.941406 104.058594 240.558594 102.449219 C 241.617188 99.671875 242.820312 99.113281 244.378906 100.667969 M 151.902344 104.84375 C 152.472656 105.027344 153.058594 105.285156 153.203125 105.421875 C 153.617188 105.804688 152.730469 105.71875 151.386719 105.246094 C 150.523438 104.941406 150.085938 104.90625 149.824219 105.125 C 149.488281 105.402344 148.320312 109.914062 147.882812 112.617188 C 147.542969 114.722656 147.121094 114.320312 147.324219 112.085938 C 147.496094 110.210938 147.765625 108.828125 148.613281 105.527344 C 148.964844 104.152344 148.777344 103.09375 147.976562 101.925781 C 147.625 101.40625 148.101562 101.765625 149.117188 102.773438 C 150.148438 103.800781 151.292969 104.648438 151.902344 104.84375 M 163.207031 104.265625 C 166.960938 109.902344 168.089844 110.585938 173.582031 110.570312 C 177.738281 110.558594 179.679688 110.066406 183.765625 107.976562 C 183.878906 107.914062 183.976562 107.976562 183.976562 108.105469 C 183.976562 108.394531 180.539062 110.546875 179.339844 111.011719 C 178.878906 111.191406 177.867188 111.5 177.09375 111.703125 C 169.4375 113.6875 166.519531 112.308594 162.683594 104.890625 C 160.183594 100.054688 160.304688 99.910156 163.207031 104.265625 M 218.957031 103.113281 C 218.726562 103.765625 218.078125 105.171875 217.515625 106.242188 C 216.3125 108.527344 213.246094 111.597656 211.632812 112.128906 C 210.054688 112.648438 205.039062 112.339844 202.9375 111.589844 C 201.199219 110.972656 196.894531 108.523438 196.894531 108.15625 C 196.894531 108.042969 197.695312 108.308594 198.667969 108.753906 C 201.640625 110.101562 203.742188 110.542969 207.289062 110.5625 C 210.28125 110.578125 210.648438 110.519531 212.285156 109.765625 C 214.421875 108.78125 216.488281 106.648438 218.097656 103.769531 C 218.710938 102.667969 219.25 101.804688 219.292969 101.851562 C 219.339844 101.894531 219.1875 102.464844 218.957031 103.113281 M 141.542969 106.316406 C 140.398438 108.429688 139.914062 110.601562 139.617188 114.941406 L 139.363281 118.722656 L 139.433594 114.511719 C 139.492188 111.160156 139.625 109.941406 140.085938 108.535156 C 140.566406 107.074219 141.875 104.824219 142.25 104.824219 C 142.304688 104.824219 141.984375 105.496094 141.542969 106.316406 M 228.125 105.730469 C 229.269531 106.253906 229.9375 106.789062 230.492188 107.625 L 231.261719 108.785156 L 230.964844 119.933594 C 230.707031 129.683594 230.601562 131.265625 230.132812 132.597656 C 229.402344 134.675781 228.628906 135.199219 226.058594 135.351562 C 223.371094 135.515625 221.933594 134.8125 220.441406 132.605469 C 217.15625 127.742188 216.25 114.394531 218.835938 108.898438 C 219.523438 107.433594 221.449219 105.617188 222.800781 105.164062 C 224.203125 104.691406 226.355469 104.921875 228.125 105.730469 M 239.714844 106.929688 C 240.195312 108.140625 240.273438 109.019531 240.285156 113.25 C 240.292969 117.96875 240.265625 118.222656 239.5625 119.707031 C 238.367188 122.234375 232.792969 129.25 231.976562 129.25 C 231.332031 129.25 231.992188 119.96875 232.996094 114.90625 C 234.101562 109.34375 234.371094 108.632812 236.066406 106.886719 C 237.292969 105.617188 237.703125 105.359375 238.359375 105.433594 C 239.023438 105.511719 239.25 105.761719 239.714844 106.929688 M 135.613281 115.339844 C 136.390625 116.546875 136.503906 116.964844 136.488281 118.566406 C 136.472656 120.242188 136.078125 123.046875 135.953125 122.371094 C 135.925781 122.21875 135.917969 121.109375 135.941406 119.902344 C 135.976562 117.871094 135.898438 117.554688 134.832031 115.410156 C 134.074219 113.890625 133.636719 112.585938 133.539062 111.5625 L 133.390625 110.019531 L 134.058594 111.984375 C 134.425781 113.066406 135.125 114.574219 135.613281 115.339844 M 199.558594 113.398438 C 201.417969 113.882812 203.039062 114.589844 204.449219 115.527344 L 205.398438 116.15625 L 205.058594 115.523438 C 204.542969 114.5625 204.882812 114.503906 206.265625 115.316406 C 209.179688 117.019531 211 121.078125 212.394531 128.96875 C 212.886719 131.757812 212.890625 144.042969 212.398438 146.9375 C 212.203125 148.097656 211.839844 150.246094 211.59375 151.710938 C 210.988281 155.355469 210.210938 156.886719 207.851562 159.109375 C 203.949219 162.792969 201.515625 163.910156 196.390625 164.371094 C 192.382812 164.730469 192.402344 164.742188 192.40625 161.316406 C 192.40625 159.816406 192.484375 158.132812 192.574219 157.578125 L 192.742188 156.566406 L 196.152344 156.59375 C 198.953125 156.613281 199.921875 156.503906 201.5625 155.988281 C 202.660156 155.644531 203.703125 155.359375 203.878906 155.359375 C 204.085938 155.359375 204.207031 156.039062 204.226562 157.257812 L 204.25 159.152344 L 205.019531 156.203125 C 205.441406 154.582031 205.878906 152.886719 205.992188 152.433594 L 206.199219 151.613281 L 205.097656 152.613281 C 204.488281 153.160156 203.5 153.78125 202.902344 153.988281 C 201.726562 154.398438 197.558594 154.46875 194.851562 154.121094 C 192.371094 153.804688 192.28125 153.578125 192.167969 147.183594 C 192.109375 143.691406 192.183594 141.734375 192.390625 141.34375 C 192.5625 141.023438 193.171875 140.550781 193.746094 140.296875 C 196.246094 139.183594 204.117188 140.152344 205.519531 141.746094 C 206.191406 142.503906 206.722656 144.089844 206.726562 145.324219 C 206.726562 145.75 206.855469 146.097656 207.007812 146.097656 C 207.164062 146.097656 207.289062 145.902344 207.289062 145.667969 C 207.289062 145.429688 207.484375 143.394531 207.71875 141.136719 C 207.957031 138.882812 208.105469 136.992188 208.046875 136.933594 C 207.992188 136.878906 207.640625 137.304688 207.265625 137.882812 C 206.417969 139.199219 205.703125 139.308594 203.164062 138.511719 C 201.59375 138.015625 200.566406 137.910156 197.421875 137.917969 C 195.316406 137.921875 193.261719 138.011719 192.855469 138.113281 L 192.121094 138.296875 L 192.125 133.5625 C 192.128906 128.511719 192.261719 127.898438 193.542969 126.945312 C 194.664062 126.117188 198.792969 125.503906 200.980469 125.84375 C 203.699219 126.265625 206.03125 127.425781 207.175781 128.921875 L 208.132812 130.175781 L 208.132812 127.1875 C 208.132812 125.542969 208.070312 124.199219 207.996094 124.199219 C 207.921875 124.199219 207.671875 124.648438 207.441406 125.199219 C 207.125 125.953125 206.894531 126.164062 206.523438 126.046875 C 202.453125 124.769531 196.8125 124.148438 194.402344 124.710938 C 192.347656 125.1875 192.320312 125.140625 192.472656 121.277344 C 192.632812 117.265625 193.386719 114.460938 194.554688 113.542969 C 195.453125 112.835938 197.207031 112.785156 199.558594 113.398438 M 185.902344 113.964844 C 186.957031 115.304688 188.023438 119.667969 187.859375 121.953125 C 187.769531 123.183594 187.75 123.152344 187.121094 120.6875 C 186.304688 117.488281 185.351562 115.390625 184.4375 114.792969 C 184.046875 114.539062 182.867188 114.234375 181.816406 114.125 L 179.902344 113.917969 L 181.726562 113.617188 C 184.757812 113.121094 185.273438 113.164062 185.902344 113.964844 M 163.054688 119.917969 C 162.8125 124.03125 162.261719 127.28125 161.414062 129.617188 C 159.984375 133.550781 158.589844 135.011719 155.992188 135.300781 L 154.621094 135.453125 L 156.007812 134.886719 C 157.675781 134.203125 159.238281 132.742188 160.066406 131.078125 C 160.714844 129.78125 161.675781 125.402344 162.515625 119.917969 C 162.792969 118.101562 163.070312 116.617188 163.136719 116.617188 C 163.199219 116.617188 163.160156 118.101562 163.054688 119.917969 M 170.746094 121.132812 C 169.207031 125.71875 168.511719 130.058594 168.324219 136.175781 C 168.152344 141.722656 168.421875 145.113281 169.535156 151.507812 C 170.289062 155.820312 170.324219 156.203125 169.953125 156.203125 C 169.277344 156.203125 167.863281 148.59375 167.398438 142.484375 C 166.757812 134.023438 168.367188 123.320312 170.941406 118.933594 C 171.339844 118.253906 171.703125 117.738281 171.75 117.789062 C 171.796875 117.839844 171.34375 119.34375 170.746094 121.132812 M 242.109375 124.375 C 243.375 125.433594 244.019531 126.894531 244.539062 129.867188 C 245.664062 136.3125 244.3125 141.265625 239.992188 146.5625 C 234.714844 153.03125 231.601562 157.542969 228.609375 163.070312 C 227.773438 164.609375 226.964844 165.84375 226.8125 165.8125 C 226.332031 165.722656 226.125 161.03125 226.414062 156.90625 C 227.0625 147.691406 229.558594 138.632812 233.757812 130.25 C 235.234375 127.300781 237.191406 125.039062 239.054688 124.121094 C 240.394531 123.460938 241.097656 123.519531 242.109375 124.375 M 182.933594 126.167969 C 185.199219 126.496094 186.78125 127.238281 187.515625 128.324219 C 187.972656 129 188.039062 129.558594 187.980469 132.339844 C 187.902344 136 187.417969 138.523438 187.363281 135.566406 C 187.304688 132.609375 186.824219 129.816406 186.234375 128.988281 C 185.527344 127.996094 184.710938 127.6875 181.726562 127.292969 C 176.882812 126.652344 176.78125 126.613281 178.949219 126.1875 C 180.632812 125.855469 180.761719 125.855469 182.933594 126.167969 M 135.582031 131.652344 C 135.027344 136.859375 136.4375 140.65625 141.046875 146.378906 C 143.066406 148.878906 143.398438 149.40625 142.535156 148.714844 C 136.800781 144.136719 133.769531 137.675781 134.777344 132.195312 C 135.070312 130.613281 135.652344 128.820312 135.800781 129.039062 C 135.828125 129.078125 135.730469 130.253906 135.582031 131.652344 M 186.359375 140.761719 C 186.777344 140.921875 187.253906 141.429688 187.464844 141.953125 C 187.921875 143.070312 188.367188 151.710938 187.96875 151.710938 C 187.820312 151.710938 187.617188 150.796875 187.515625 149.675781 C 187.246094 146.710938 186.742188 143.503906 186.453125 142.941406 C 186.054688 142.15625 184.757812 141.640625 181.960938 141.160156 C 180.519531 140.914062 179.289062 140.660156 179.222656 140.597656 C 178.96875 140.34375 185.671875 140.5 186.359375 140.761719 M 219.890625 143.078125 C 219.164062 146.378906 219.183594 152.265625 219.933594 155.945312 C 220.632812 159.363281 221.378906 161.460938 223.742188 166.632812 C 224.769531 168.878906 225.65625 171.238281 225.742188 171.964844 C 225.921875 173.449219 225.59375 178.109375 225.3125 178.089844 C 225.210938 178.082031 224.621094 177.429688 224.003906 176.636719 C 223.386719 175.84375 221.324219 173.230469 219.421875 170.824219 C 217.519531 168.417969 215.792969 166.058594 215.589844 165.578125 C 215.382812 165.097656 214.683594 162.585938 214.03125 160 C 213.035156 156.039062 212.871094 154.996094 212.996094 153.429688 C 213.199219 150.820312 213.941406 146.507812 214.296875 145.839844 C 214.460938 145.535156 215.511719 144.59375 216.632812 143.75 C 217.75 142.90625 218.972656 141.890625 219.347656 141.488281 C 219.722656 141.089844 220.113281 140.761719 220.214844 140.761719 C 220.316406 140.761719 220.171875 141.804688 219.890625 143.078125 M 247.351562 143.304688 C 248.003906 146.203125 248.003906 153.699219 247.351562 157.328125 C 246.867188 160.023438 245.21875 165.851562 245.003906 165.636719 C 244.9375 165.570312 245.085938 163.707031 245.328125 161.492188 C 246.007812 155.3125 246.328125 150.992188 246.332031 148.035156 C 246.332031 145.304688 246.621094 140.957031 246.789062 141.125 C 246.839844 141.175781 247.09375 142.15625 247.351562 143.304688 M 153.484375 146.238281 C 154.066406 148.25 154.761719 153.464844 154.398438 153.117188 C 154.257812 152.976562 151.941406 142.632812 151.964844 142.230469 C 151.988281 141.789062 152.867188 144.105469 153.484375 146.238281 M 224.808594 147.816406 C 225.652344 150.839844 225.714844 151.765625 225.617188 159.695312 L 225.546875 165.292969 L 224.734375 164.515625 C 222.011719 161.90625 220.160156 153.90625 221.015625 148.441406 C 221.347656 146.324219 222.1875 144.050781 222.953125 143.207031 C 223.382812 142.734375 223.425781 142.773438 223.730469 143.910156 C 223.910156 144.570312 224.394531 146.328125 224.808594 147.816406 M 163.964844 145.140625 C 165.941406 146.371094 166.226562 146.910156 166.886719 150.589844 C 167.605469 154.613281 167.296875 157.835938 165.667969 163.222656 C 164.941406 165.628906 163.976562 167.085938 160.058594 171.6875 C 158.261719 173.804688 156.433594 175.996094 156 176.566406 C 155.304688 177.476562 155.1875 177.539062 155.007812 177.078125 C 154.894531 176.792969 154.792969 175.449219 154.78125 174.09375 C 154.757812 171.246094 155.234375 169.5625 157.128906 165.785156 C 158.582031 162.890625 159.640625 160.007812 160.453125 156.769531 C 160.957031 154.75 161.054688 153.519531 161.066406 148.847656 C 161.082031 143.382812 161.089844 143.320312 161.644531 143.679688 C 161.953125 143.882812 162.996094 144.539062 163.964844 145.140625 M 160.292969 150.589844 C 160.179688 153.546875 159.140625 159.269531 158.78125 158.910156 C 158.632812 158.761719 159.425781 147.367188 159.734375 145.253906 L 159.914062 143.992188 L 160.164062 145.675781 C 160.300781 146.601562 160.359375 148.8125 160.292969 150.589844 M 133.550781 157.023438 C 133.78125 158.632812 133.925781 160 133.867188 160.054688 C 133.539062 160.382812 132.789062 154.636719 132.707031 151.148438 L 132.609375 147.078125 L 132.871094 150.589844 C 133.011719 152.519531 133.320312 155.414062 133.550781 157.023438 M 136.695312 150.640625 C 136.605469 150.863281 136.539062 150.796875 136.527344 150.472656 C 136.515625 150.175781 136.582031 150.011719 136.671875 150.101562 C 136.765625 150.195312 136.777344 150.4375 136.695312 150.640625 M 243.378906 164.34375 C 243.128906 166.894531 242.617188 171.414062 242.242188 174.390625 C 241.867188 177.367188 241.558594 180.136719 241.558594 180.546875 C 241.558594 180.953125 242 182.1875 242.542969 183.28125 C 243.882812 185.988281 244.46875 188.871094 244.257812 191.71875 C 244.164062 192.953125 243.710938 196.746094 243.242188 200.140625 C 242.28125 207.164062 242.082031 207.667969 240.246094 207.804688 C 239.480469 207.863281 238.925781 207.726562 238.492188 207.375 C 237.929688 206.921875 237.855469 206.605469 237.847656 204.554688 C 237.84375 203.285156 237.742188 202.246094 237.621094 202.246094 C 237.503906 202.246094 237.183594 203.15625 236.910156 204.269531 C 236.34375 206.578125 235.554688 207.582031 234.300781 207.582031 C 233.847656 207.582031 233.175781 207.339844 232.8125 207.042969 C 232.199219 206.542969 232.152344 206.320312 232.199219 204.023438 C 232.246094 201.820312 232.210938 201.621094 231.878906 202.246094 C 231.675781 202.632812 231.359375 203.671875 231.179688 204.558594 C 230.769531 206.535156 229.855469 207.425781 228.515625 207.140625 C 226.894531 206.796875 226.671875 206.359375 226.671875 203.550781 C 226.671875 200.191406 226.050781 201.007812 225.265625 205.394531 C 225.078125 206.433594 224.753906 207.425781 224.542969 207.597656 C 224.332031 207.773438 223.503906 207.910156 222.699219 207.90625 C 220.367188 207.886719 220.273438 207.6875 220.097656 202.386719 C 219.984375 198.949219 219.816406 197.476562 219.378906 196.117188 C 218.746094 194.152344 218.679688 193.117188 219.058594 191.101562 C 219.195312 190.359375 219.46875 188.871094 219.65625 187.789062 C 219.847656 186.707031 220.253906 185.328125 220.5625 184.71875 C 221.347656 183.15625 223.699219 180.761719 225.605469 179.585938 C 227.070312 178.683594 227.234375 178.488281 227.234375 177.628906 C 227.234375 177.105469 227.804688 175.144531 228.507812 173.273438 C 229.207031 171.40625 229.734375 169.738281 229.675781 169.570312 C 229.621094 169.402344 229.085938 170 228.488281 170.902344 C 227.257812 172.753906 227.007812 172.621094 226.972656 170.089844 C 226.953125 168.789062 227.167969 168.3125 229.625 164.195312 C 232.421875 159.5 234.867188 156.085938 237.460938 153.253906 L 239.003906 151.570312 L 239.011719 152.976562 C 239.035156 157.066406 237.617188 162.449219 233.578125 173.574219 C 232.9375 175.339844 233.023438 175.34375 234.152344 173.609375 C 236.085938 170.644531 238.726562 164.722656 240.730469 158.871094 C 241.839844 155.628906 242.953125 152.40625 243.207031 151.710938 L 243.664062 150.449219 L 243.75 155.082031 C 243.804688 157.929688 243.660156 161.496094 243.378906 164.34375 M 141.410156 163.925781 C 142.148438 165.777344 143.488281 168.777344 144.386719 170.59375 C 145.285156 172.40625 145.976562 173.890625 145.921875 173.890625 C 145.871094 173.890625 145.164062 172.855469 144.351562 171.59375 C 141.601562 167.304688 139.234375 161.5 137.609375 155.035156 C 137.15625 153.234375 136.792969 151.59375 136.804688 151.386719 C 136.816406 151.179688 137.550781 153.15625 138.441406 155.78125 C 139.332031 158.40625 140.667969 162.070312 141.410156 163.925781 M 79.761719 155.5 C 79.761719 155.703125 78.671875 159.78125 78.167969 161.457031 C 77.769531 162.773438 77.609375 162.964844 76.566406 163.351562 C 75.40625 163.78125 67.195312 166.03125 66.78125 166.03125 C 66.117188 166.03125 67.105469 161.519531 68.285156 159.152344 C 68.902344 157.914062 69.101562 157.738281 69.949219 157.671875 C 70.921875 157.59375 78.679688 155.691406 78.898438 155.476562 C 79.0625 155.3125 79.761719 155.332031 79.761719 155.5 M 303.355469 155.933594 C 304.515625 156.246094 306.851562 156.792969 308.550781 157.152344 L 311.640625 157.808594 L 312.453125 159.742188 C 313.300781 161.765625 314.003906 164.304688 314.019531 165.421875 C 314.027344 166.011719 313.941406 166.054688 313.117188 165.886719 C 310.710938 165.394531 303.710938 163.417969 303.195312 163.085938 C 302.773438 162.816406 302.375 161.808594 301.722656 159.355469 C 300.777344 155.804688 300.699219 155.359375 301.039062 155.367188 C 301.152344 155.367188 302.195312 155.625 303.355469 155.933594 M 187.527344 156.980469 C 187.820312 157.167969 188.039062 158.898438 187.945312 160.273438 C 187.910156 160.75 187.824219 160.703125 187.386719 159.984375 C 186.761719 158.960938 185.324219 158.308594 182.804688 157.902344 C 181.773438 157.734375 180.507812 157.414062 179.996094 157.191406 C 179.121094 156.816406 179.335938 156.785156 183.132812 156.78125 C 185.371094 156.777344 187.351562 156.867188 187.527344 156.980469 M 87.621094 159.519531 C 89.417969 161.316406 90.160156 162.652344 92.484375 168.277344 C 94.863281 174.035156 95.226562 175.015625 94.964844 175.015625 C 94.835938 175.015625 94.503906 174.414062 94.230469 173.679688 C 92.300781 168.476562 89.289062 162.945312 87.476562 161.273438 C 85.277344 159.253906 83.308594 159.8125 81.75 162.898438 C 80.066406 166.242188 79.449219 169.507812 78.910156 177.960938 C 78.476562 184.75 78.386719 184.910156 78.507812 178.664062 C 78.710938 168.304688 80.277344 161.230469 82.894531 158.867188 C 84.585938 157.335938 85.574219 157.472656 87.621094 159.519531 M 297.605469 158.800781 C 298.777344 159.882812 300.269531 163.765625 300.945312 167.476562 C 301.429688 170.136719 301.972656 176.59375 301.910156 178.929688 C 301.859375 180.703125 301.832031 180.507812 301.222656 174.195312 C 300.570312 167.410156 299.347656 163.179688 297.449219 161.148438 C 296.613281 160.25 296.199219 160.023438 295.425781 160.023438 C 293.378906 160.023438 290.910156 162.960938 288.449219 168.320312 C 287.765625 169.8125 287.167969 171 287.125 170.957031 C 287.027344 170.859375 288.511719 166.867188 289.328125 165.046875 C 290.332031 162.800781 292.03125 160.285156 293.382812 159.042969 C 295.011719 157.539062 296.175781 157.472656 297.605469 158.800781 M 67.402344 159.003906 C 67.402344 159.53125 65.929688 165.609375 65.691406 166.070312 C 65.527344 166.382812 63.925781 166.898438 60.597656 167.710938 C 57.929688 168.363281 55.195312 169.132812 54.523438 169.425781 C 53.390625 169.917969 53.316406 169.917969 53.496094 169.464844 C 53.605469 169.199219 54.203125 167.398438 54.820312 165.46875 C 55.441406 163.539062 56.113281 161.785156 56.3125 161.574219 C 56.511719 161.363281 57.160156 161.089844 57.757812 160.96875 C 58.351562 160.84375 60.542969 160.296875 62.628906 159.75 C 66.6875 158.683594 67.402344 158.574219 67.402344 159.003906 M 317.539062 159.804688 C 318.929688 160.246094 320.914062 160.765625 321.945312 160.960938 C 323.042969 161.167969 324.019531 161.527344 324.292969 161.828125 C 324.695312 162.277344 325.691406 165.15625 326.371094 167.855469 C 326.488281 168.316406 326.675781 168.992188 326.792969 169.351562 C 326.996094 169.984375 326.980469 169.992188 326.34375 169.574219 C 325.976562 169.335938 323.351562 168.570312 320.503906 167.875 C 317.65625 167.175781 315.175781 166.445312 314.988281 166.246094 C 314.804688 166.050781 314.316406 164.4375 313.90625 162.660156 C 313.496094 160.886719 313.101562 159.257812 313.027344 159.042969 C 312.851562 158.523438 314.238281 158.757812 317.539062 159.804688 M 134.167969 161.027344 C 134.078125 161.253906 134.011719 161.1875 134 160.859375 C 133.984375 160.5625 134.050781 160.398438 134.144531 160.492188 C 134.238281 160.585938 134.25 160.828125 134.167969 161.027344 M 167.164062 164.316406 C 167.011719 165.851562 166.742188 167.371094 166.570312 167.691406 C 166.21875 168.351562 160.882812 173.082031 160.699219 172.898438 C 160.570312 172.769531 162.800781 170.078125 164.273438 168.585938 C 165.3125 167.535156 166.554688 165.121094 166.558594 164.140625 C 166.5625 163.296875 167.222656 160.859375 167.347656 161.230469 C 167.402344 161.390625 167.320312 162.78125 167.164062 164.316406 M 87.007812 162.234375 C 91.101562 165.675781 96.03125 180.105469 98.988281 197.308594 C 99.898438 202.613281 99.90625 202.457031 98.792969 202.757812 C 98.292969 202.894531 97.847656 202.980469 97.808594 202.949219 C 97.765625 202.917969 97.113281 199.746094 96.359375 195.902344 C 94.558594 186.714844 93.542969 182.667969 91.519531 176.558594 C 89.535156 170.570312 87.074219 165.355469 85.261719 163.316406 C 84.554688 162.519531 83.976562 161.792969 83.976562 161.703125 C 83.976562 161.613281 84.472656 161.539062 85.078125 161.539062 C 85.84375 161.539062 86.433594 161.75 87.007812 162.234375 M 296.449219 161.777344 C 296.53125 161.910156 296.273438 162.320312 295.878906 162.691406 C 294.667969 163.824219 292.664062 167.066406 291.410156 169.917969 C 288.992188 175.414062 286.054688 185.632812 284.539062 193.824219 C 284.207031 195.601562 283.675781 198.355469 283.355469 199.945312 L 282.769531 202.839844 L 281.898438 202.753906 C 281.132812 202.679688 281.011719 202.550781 280.933594 201.730469 C 280.886719 201.214844 281.117188 199.257812 281.445312 197.378906 C 284.46875 180.207031 288.910156 167.042969 293.1875 162.589844 C 294.003906 161.742188 294.402344 161.539062 295.25 161.539062 C 295.828125 161.539062 296.367188 161.644531 296.449219 161.777344 M 55.042969 162.101562 C 55.042969 162.417969 53.769531 167.355469 53.328125 168.753906 C 53.066406 169.585938 52.851562 169.714844 50.601562 170.402344 C 49.261719 170.8125 46.898438 171.460938 45.355469 171.84375 C 42.402344 172.570312 41.582031 173.035156 41.527344 174.003906 C 41.507812 174.421875 41.460938 174.460938 41.375 174.140625 C 41.15625 173.320312 42.316406 168.457031 43.1875 166.539062 C 43.980469 164.789062 44.121094 164.636719 45.257812 164.320312 C 49.09375 163.253906 54.390625 161.859375 54.695312 161.839844 C 54.886719 161.828125 55.042969 161.945312 55.042969 162.101562 M 329.519531 162.800781 C 331.738281 163.34375 334.210938 163.980469 335.015625 164.214844 L 336.476562 164.648438 L 337.761719 168.574219 C 338.890625 172.027344 340.078125 177.710938 339.738281 178.046875 C 339.589844 178.195312 339.398438 177.289062 339.1875 175.476562 C 338.878906 172.777344 338.925781 172.808594 333.207031 171.230469 C 330.394531 170.453125 327.882812 169.609375 327.632812 169.359375 C 327.246094 168.972656 325.125 161.820312 325.398438 161.820312 C 325.449219 161.820312 327.304688 162.261719 329.519531 162.800781 M 214.027344 163.292969 C 214.191406 163.949219 214.46875 165.039062 214.644531 165.710938 C 214.855469 166.511719 215.464844 167.488281 216.398438 168.519531 C 218.453125 170.785156 220.007812 172.769531 219.726562 172.769531 C 219.589844 172.769531 218.980469 172.257812 218.371094 171.632812 C 217.761719 171.007812 216.597656 169.964844 215.785156 169.316406 C 214.121094 167.988281 213.867188 167.40625 213.59375 164.273438 C 213.382812 161.871094 213.566406 161.453125 214.027344 163.292969 M 42.675781 165.539062 C 42.671875 165.730469 42.355469 167.027344 41.96875 168.417969 C 41.585938 169.804688 41.191406 171.300781 41.097656 171.734375 C 41 172.167969 40.65625 172.695312 40.328125 172.90625 C 40.003906 173.117188 37.777344 173.808594 35.382812 174.441406 C 32.988281 175.078125 30.679688 175.734375 30.257812 175.902344 C 29.277344 176.285156 28.988281 177.316406 28.507812 182.15625 C 28.234375 184.914062 28.136719 185.390625 28.109375 184.089844 C 28.03125 179.765625 29.757812 171.292969 31.199219 168.933594 C 31.875 167.832031 31.789062 167.867188 37.207031 166.449219 C 42.289062 165.117188 42.6875 165.050781 42.675781 165.539062 M 341.277344 166.042969 C 342.433594 166.367188 344.519531 166.851562 345.910156 167.121094 C 348.222656 167.574219 348.492188 167.695312 349.074219 168.550781 C 349.796875 169.621094 350.957031 173.101562 351.257812 175.113281 L 351.460938 176.476562 L 350.792969 176.0625 C 350.425781 175.832031 348.292969 175.179688 346.050781 174.609375 C 343.8125 174.039062 341.519531 173.453125 340.957031 173.308594 C 339.757812 173 339.660156 172.800781 338.492188 168.3125 L 337.660156 165.125 L 338.414062 165.292969 C 338.828125 165.386719 340.117188 165.722656 341.277344 166.042969 M 185.097656 167.457031 C 187.925781 167.921875 192.679688 167.734375 196.582031 167.007812 C 197.074219 166.914062 196.917969 167.0625 196.105469 167.453125 C 194.15625 168.386719 191.136719 168.914062 188.734375 168.738281 C 186.785156 168.59375 182.007812 167.339844 182.007812 166.96875 C 182.007812 166.882812 182.355469 166.898438 182.78125 167.007812 C 183.207031 167.113281 184.25 167.316406 185.097656 167.457031 M 314.503906 169.890625 C 314.433594 170.160156 314.375 169.9375 314.375 169.398438 C 314.375 168.859375 314.433594 168.636719 314.503906 168.90625 C 314.574219 169.175781 314.574219 169.621094 314.503906 169.890625 M 355.039062 169.609375 C 356.351562 169.992188 358.28125 170.523438 359.324219 170.789062 C 360.367188 171.054688 361.296875 171.347656 361.390625 171.441406 C 361.605469 171.65625 364.253906 179.894531 364.152344 180.023438 C 364.109375 180.074219 363.714844 179.859375 363.277344 179.542969 C 362.585938 179.046875 361.113281 178.582031 353.71875 176.535156 C 352.917969 176.3125 352.195312 176.023438 352.113281 175.894531 C 351.949219 175.628906 350.265625 169.144531 350.265625 168.78125 C 350.265625 168.453125 352.253906 168.796875 355.039062 169.609375 M 154.035156 171.550781 L 153.820312 173.1875 L 153.59375 172.140625 C 153.460938 171.523438 153.484375 170.785156 153.652344 170.347656 C 154.089844 169.191406 154.269531 169.746094 154.035156 171.550781 M 315.121094 175.972656 C 315.171875 179.152344 314.957031 177.953125 314.800781 174.171875 C 314.703125 171.875 314.730469 171.246094 314.871094 172.347656 C 314.992188 173.273438 315.105469 174.90625 315.121094 175.972656 M 76.585938 175.5 C 76.515625 175.773438 76.453125 175.617188 76.449219 175.15625 C 76.441406 174.691406 76.5 174.46875 76.578125 174.65625 C 76.652344 174.847656 76.660156 175.226562 76.585938 175.5 M 327.804688 192.664062 C 327.625 197.503906 327.53125 201.515625 327.589844 201.578125 C 327.652344 201.636719 327.871094 199.855469 328.074219 197.617188 C 328.277344 195.375 328.53125 193.542969 328.632812 193.542969 C 328.730469 193.542969 329.4375 193.722656 330.199219 193.945312 C 332.378906 194.578125 339.316406 196.351562 339.609375 196.351562 C 339.761719 196.351562 339.886719 193.773438 339.910156 190.105469 C 339.945312 184.71875 339.984375 184.207031 340.1875 186.382812 C 340.78125 192.648438 339.144531 216.480469 337.597656 224.09375 L 337.296875 225.582031 L 336.617188 225.136719 C 336.242188 224.894531 333.945312 224.1875 331.515625 223.566406 C 325.429688 222.019531 325.832031 222.261719 325.796875 220.152344 L 325.765625 218.390625 L 325.332031 220.457031 C 325.039062 221.871094 324.828125 222.394531 324.667969 222.109375 C 324.523438 221.847656 322.585938 221.234375 319.582031 220.496094 C 316.914062 219.839844 314.429688 219.113281 314.058594 218.882812 C 313.410156 218.480469 313.394531 218.386719 313.558594 215.902344 C 313.652344 214.492188 313.789062 212.640625 313.867188 211.792969 L 314.007812 210.25 L 313.734375 211.933594 C 312.886719 217.105469 312.53125 218.8125 312.300781 218.8125 C 312.160156 218.8125 311.761719 218.636719 311.421875 218.421875 C 310.769531 218.011719 301.449219 215.554688 301.285156 215.75 C 301.234375 215.8125 300.921875 217.125 300.597656 218.671875 C 300.269531 220.214844 300.058594 221.035156 300.121094 220.496094 C 301.953125 205.304688 302.570312 199.445312 303.238281 191.023438 C 303.472656 188.015625 303.726562 185.5 303.792969 185.433594 C 303.863281 185.363281 303.917969 185.640625 303.917969 186.046875 C 303.917969 186.519531 304.140625 186.90625 304.535156 187.117188 C 305.273438 187.511719 314.679688 189.886719 314.851562 189.722656 C 314.917969 189.660156 315.066406 187.367188 315.179688 184.628906 C 315.355469 180.375 315.367188 180.695312 315.265625 186.804688 C 315.199219 190.742188 315.089844 195.480469 315.023438 197.332031 C 314.914062 200.359375 314.945312 200.199219 315.3125 195.789062 C 315.539062 193.085938 315.777344 190.726562 315.84375 190.542969 C 315.933594 190.296875 316.675781 190.398438 318.578125 190.90625 C 320.015625 191.289062 322.453125 191.929688 324 192.328125 C 325.546875 192.726562 326.96875 193.113281 327.160156 193.1875 C 327.4375 193.292969 327.519531 191.574219 327.550781 185.222656 C 327.589844 177.730469 327.613281 177.375 327.859375 180.488281 C 328.039062 182.75 328.023438 186.757812 327.804688 192.664062 M 66.25 189.660156 C 66.617188 189.605469 69.082031 188.972656 71.726562 188.253906 L 76.53125 186.941406 L 76.671875 184.554688 C 76.808594 182.253906 76.820312 182.316406 77.035156 186.382812 C 77.667969 198.515625 78.324219 205.378906 79.925781 216.53125 C 80.464844 220.296875 80.863281 223.421875 80.804688 223.480469 C 80.75 223.535156 80.414062 221.90625 80.0625 219.863281 C 79.710938 217.816406 79.328125 216.042969 79.214844 215.921875 C 78.914062 215.59375 69.636719 217.917969 68.761719 218.542969 L 68.011719 219.074219 L 67.722656 217.1875 C 66.304688 208.023438 65.429688 197.140625 65.324219 187.367188 C 65.261719 181.316406 65.285156 180.523438 65.410156 184.417969 L 65.578125 189.753906 L 66.25 189.660156 M 52.726562 188.964844 C 52.675781 190.632812 52.636719 189.347656 52.636719 186.105469 C 52.636719 182.859375 52.675781 181.496094 52.726562 183.070312 C 52.777344 184.644531 52.777344 187.296875 52.726562 188.964844 M 302.152344 183.367188 C 302.085938 183.792969 302.035156 183.445312 302.035156 182.59375 C 302.035156 181.746094 302.085938 181.398438 302.152344 181.820312 C 302.214844 182.246094 302.214844 182.941406 302.152344 183.367188 M 40.933594 196.34375 C 41.449219 196.324219 46.726562 194.941406 48.976562 194.238281 C 51.253906 193.523438 51.503906 193.492188 51.808594 193.910156 C 52 194.171875 52.285156 196.515625 52.480469 199.5 C 52.886719 205.605469 53.421875 210.882812 54.253906 216.957031 L 54.867188 221.417969 L 54.28125 221.890625 C 53.960938 222.152344 51.566406 222.902344 48.964844 223.554688 C 45.695312 224.378906 44.085938 224.914062 43.761719 225.289062 C 43.304688 225.824219 43.289062 225.816406 43.132812 225.0625 C 42.402344 221.480469 41.519531 213.992188 40.851562 205.757812 C 40.316406 199.117188 40.003906 186.761719 40.324219 184.980469 C 40.515625 183.917969 40.597656 185.128906 40.652344 189.964844 C 40.695312 193.476562 40.820312 196.347656 40.933594 196.34375 M 352.550781 200.28125 C 352.144531 209.644531 351.40625 217.367188 350.101562 225.890625 C 349.726562 228.332031 349.574219 228.828125 349.28125 228.535156 C 349.082031 228.335938 346.914062 227.640625 344.464844 226.984375 C 337.6875 225.171875 338.1875 225.398438 338.1875 224.171875 C 338.1875 223.59375 338.378906 221.742188 338.617188 220.054688 C 339.191406 215.980469 339.746094 210.445312 340.316406 203.089844 C 340.574219 199.769531 340.824219 197.007812 340.875 196.949219 C 340.957031 196.859375 351 199.324219 351.878906 199.648438 C 352.15625 199.753906 352.242188 198.140625 352.273438 192.238281 L 352.316406 184.699219 L 352.59375 188.769531 C 352.785156 191.589844 352.773438 195.128906 352.550781 200.28125 M 28.007812 196.125 C 27.960938 198.023438 27.917969 196.546875 27.917969 192.84375 C 27.917969 189.136719 27.957031 187.582031 28.007812 189.386719 C 28.054688 191.191406 28.058594 194.222656 28.007812 196.125 M 364.898438 204.070312 C 364.511719 212.875 363.71875 221.46875 362.609375 228.917969 C 362.152344 232.003906 362.140625 232.027344 361.425781 231.726562 C 361.082031 231.578125 359.15625 231.003906 357.148438 230.449219 C 355.136719 229.894531 352.832031 229.253906 352.019531 229.03125 C 350.574219 228.628906 350.546875 228.601562 350.546875 227.558594 C 350.546875 226.972656 350.667969 225.808594 350.820312 224.96875 C 351.171875 223.003906 352.113281 214.179688 352.511719 209.125 C 352.679688 206.964844 352.910156 204.121094 353.015625 202.808594 L 353.214844 200.421875 L 354.058594 200.449219 C 354.519531 200.460938 357.027344 201.019531 359.628906 201.6875 C 363.46875 202.671875 364.402344 202.828125 364.59375 202.519531 C 364.722656 202.3125 364.785156 199.101562 364.730469 195.386719 C 364.628906 188.660156 364.628906 188.648438 364.925781 192.703125 C 365.140625 195.632812 365.132812 198.816406 364.898438 204.070312 M 16.113281 202.695312 C 16.398438 202.804688 24.277344 200.839844 26.277344 200.15625 C 27.164062 199.855469 27.324219 200.574219 27.820312 207.0625 C 28.449219 215.28125 28.765625 218.402344 29.519531 223.816406 C 29.871094 226.363281 30.011719 228.222656 29.863281 228.371094 C 29.722656 228.511719 27.273438 229.277344 24.421875 230.078125 C 21.566406 230.875 19.027344 231.703125 18.777344 231.914062 C 18.375 232.261719 18.308594 232.160156 18.164062 230.960938 C 18.074219 230.222656 17.675781 227.113281 17.277344 224.046875 C 16.046875 214.558594 15.703125 209.558594 15.613281 199.859375 C 15.566406 194.765625 15.570312 193.285156 15.628906 196.574219 C 15.707031 201.273438 15.8125 202.582031 16.113281 202.695312 M 64.714844 191.085938 C 64.785156 191.433594 65.175781 195.761719 65.582031 200.703125 C 66.4375 211.070312 67.039062 217.136719 67.273438 217.75 C 67.457031 218.230469 66.726562 219.09375 66.136719 219.09375 C 65.925781 219.09375 63.660156 219.660156 61.097656 220.355469 C 58.539062 221.050781 56.265625 221.617188 56.046875 221.617188 C 55.300781 221.617188 54.636719 218.089844 53.808594 209.6875 C 53.3125 204.652344 52.648438 193.597656 52.832031 193.414062 C 52.90625 193.34375 54.917969 192.777344 57.304688 192.15625 C 59.691406 191.535156 62.023438 190.90625 62.488281 190.765625 C 63.960938 190.308594 64.574219 190.398438 64.714844 191.085938 M 217.589844 193.105469 C 217.476562 193.394531 217.0625 193.542969 216.371094 193.542969 C 215.25 193.542969 215.324219 193.246094 216.605469 192.570312 C 217.347656 192.179688 217.839844 192.445312 217.589844 193.105469 M 212.457031 194.375 C 217.433594 194.671875 218.296875 194.90625 218.671875 196.085938 C 218.773438 196.410156 218.796875 196.734375 218.722656 196.808594 C 218.648438 196.882812 216.269531 196.816406 213.429688 196.660156 C 197.085938 195.765625 195.011719 195.710938 184.539062 195.898438 C 173.675781 196.097656 164.398438 196.480469 162.699219 196.804688 C 161.605469 197.011719 161.480469 196.53125 162.339844 195.441406 C 163.066406 194.515625 163.726562 194.449219 174.707031 194.222656 C 179.574219 194.121094 183.617188 193.976562 183.695312 193.898438 C 183.914062 193.671875 207.164062 194.058594 212.457031 194.375 M 96.191406 199.53125 C 97.25 202.636719 97.289062 202.867188 96.828125 203.207031 C 96.558594 203.410156 96.003906 203.507812 95.597656 203.433594 L 94.859375 203.289062 L 95.058594 206.066406 C 95.171875 207.59375 95.4375 210.035156 95.652344 211.496094 C 96.230469 215.40625 95.753906 215.414062 94.5 211.511719 C 93.785156 209.304688 93.71875 208.683594 93.59375 203.203125 C 93.453125 197.027344 93.609375 195.9375 94.597656 196.125 C 94.921875 196.1875 95.417969 197.246094 96.191406 199.53125 M 93.097656 197.542969 C 92.8125 199.265625 92.523438 199.667969 91.34375 199.976562 C 90.769531 200.128906 89.382812 200.496094 88.269531 200.789062 C 87.152344 201.085938 86.175781 201.261719 86.09375 201.179688 C 85.722656 200.808594 86 199.40625 86.574219 198.75 C 87.210938 198.023438 91.316406 196.414062 92.640625 196.371094 C 93.257812 196.351562 93.285156 196.421875 93.097656 197.542969 M 286.820312 197.125 C 286.988281 197.546875 287.132812 199.726562 287.140625 201.964844 C 287.15625 205.734375 287.082031 206.324219 286.164062 209.910156 C 285.207031 213.628906 284.972656 214.285156 284.6875 214 C 284.613281 213.929688 284.800781 211.730469 285.101562 209.113281 C 285.832031 202.78125 285.917969 203.371094 284.253906 203.371094 C 283.480469 203.371094 282.851562 203.320312 282.851562 203.261719 C 282.851562 203.070312 284.75 197.914062 285.113281 197.125 C 285.316406 196.683594 285.695312 196.351562 285.992188 196.351562 C 286.300781 196.351562 286.640625 196.667969 286.820312 197.125 M 289.730469 196.878906 C 293.324219 197.824219 294.265625 198.398438 294.390625 199.722656 C 294.550781 201.460938 294.632812 201.4375 291.378906 200.566406 C 289.734375 200.125 288.230469 199.597656 288.03125 199.390625 C 287.605469 198.953125 287.167969 196.347656 287.523438 196.355469 C 287.65625 196.359375 288.652344 196.59375 289.730469 196.878906 M 39.703125 198.105469 C 39.785156 198.761719 39.988281 201.003906 40.15625 203.089844 C 40.4375 206.578125 40.835938 210.445312 41.996094 220.917969 C 42.421875 224.753906 42.417969 224.859375 41.878906 225.292969 C 41.578125 225.539062 39.210938 226.265625 36.621094 226.910156 C 34.03125 227.550781 31.679688 228.289062 31.398438 228.542969 C 31.117188 228.800781 30.839844 228.957031 30.789062 228.894531 C 30.6875 228.773438 30.359375 226.464844 29.476562 219.652344 C 28.929688 215.425781 28.207031 207.15625 27.980469 202.523438 L 27.851562 199.847656 L 33.371094 198.40625 C 36.410156 197.613281 39.042969 196.953125 39.226562 196.9375 C 39.417969 196.921875 39.625 197.429688 39.703125 198.105469 M 136.308594 197.964844 C 136.394531 198.390625 136.375 198.816406 136.273438 198.917969 C 136.167969 199.015625 134.648438 199.242188 132.898438 199.417969 C 131.148438 199.597656 127.921875 200.054688 125.734375 200.4375 C 123.546875 200.820312 119.609375 201.503906 116.980469 201.953125 C 112.335938 202.75 107.496094 203.820312 99.90625 205.730469 C 96.234375 206.652344 95.792969 206.648438 95.777344 205.707031 C 95.769531 204.964844 96.773438 204.507812 100.191406 203.691406 C 102.164062 203.222656 105.421875 202.441406 107.429688 201.960938 C 114.78125 200.207031 117.703125 199.664062 125.644531 198.605469 C 130.097656 198.007812 133.816406 197.449219 133.90625 197.355469 C 133.996094 197.265625 134.539062 197.195312 135.113281 197.195312 C 136.027344 197.195312 136.175781 197.289062 136.308594 197.964844 M 250.042969 197.769531 C 255.480469 198.546875 264.664062 200.117188 269.789062 201.140625 C 274.792969 202.144531 283.6875 204.425781 284.183594 204.835938 C 284.667969 205.230469 284.632812 206.457031 284.140625 206.457031 C 283.921875 206.457031 281.425781 205.898438 278.59375 205.214844 C 270.269531 203.207031 260.96875 201.453125 251.671875 200.144531 C 244.84375 199.179688 244.085938 198.984375 244.085938 198.191406 C 244.085938 196.976562 244.378906 196.957031 250.042969 197.769531 M 212.34375 200.28125 C 218.695312 200.621094 219.367188 200.707031 219.367188 201.171875 C 219.367188 201.398438 218.519531 201.429688 216.347656 201.289062 C 207.128906 200.675781 204.28125 200.554688 194.929688 200.386719 C 184.234375 200.191406 167.949219 200.597656 163.96875 201.164062 C 161.730469 201.480469 160.210938 201.296875 161.371094 200.847656 C 161.859375 200.660156 169.328125 200.234375 178.359375 199.882812 C 183.050781 199.703125 206.691406 199.976562 212.34375 200.28125 M 224.984375 200.097656 C 224.984375 200.648438 224.15625 201.285156 222.921875 201.679688 C 221.675781 202.082031 221.878906 202.554688 223.324219 202.625 C 224.128906 202.664062 224.332031 202.523438 224.894531 201.546875 C 225.589844 200.335938 225.714844 199.71875 225.265625 199.71875 C 225.113281 199.71875 224.984375 199.890625 224.984375 200.097656 M 157.269531 201.695312 C 158.179688 201.929688 158.402344 202.082031 158.109375 202.265625 C 157.339844 202.753906 156.25 202.554688 155.777344 201.835938 C 155.472656 201.371094 155.441406 201.179688 155.675781 201.257812 C 155.867188 201.324219 156.585938 201.519531 157.269531 201.695312 M 229.839844 202.0625 C 228.671875 202.742188 228.4375 202.992188 228.691406 203.296875 C 229.277344 204 230.371094 203.59375 230.964844 202.445312 C 231.265625 201.859375 231.46875 201.34375 231.410156 201.296875 C 231.351562 201.25 230.648438 201.59375 229.839844 202.0625 M 314.679688 202.667969 C 314.679688 203.59375 314.730469 203.941406 314.792969 203.433594 C 314.855469 202.929688 314.855469 202.171875 314.792969 201.75 C 314.726562 201.328125 314.675781 201.742188 314.679688 202.667969 M 210.78125 202.253906 C 211.640625 202.683594 212.777344 203.921875 215.371094 207.246094 C 221.570312 215.203125 222.9375 217.347656 223.710938 220.34375 C 224.214844 222.300781 224.257812 224.230469 223.847656 226.550781 C 223.320312 229.527344 222.511719 231.5625 221.453125 232.589844 C 220.535156 233.476562 220.328125 233.550781 218.71875 233.539062 C 215.621094 233.515625 211.84375 231.089844 210.394531 228.1875 C 209.210938 225.816406 208.945312 223.265625 208.78125 212.578125 C 208.695312 207.0625 208.699219 202.359375 208.789062 202.121094 C 209.011719 201.542969 209.414062 201.570312 210.78125 202.253906 M 207.785156 214.160156 C 207.832031 221.863281 207.757812 226.316406 207.578125 226.496094 C 207.253906 226.820312 204.488281 221.179688 203.097656 217.355469 C 201.921875 214.125 200.828125 209.757812 200.828125 208.296875 C 200.828125 207.0625 201.789062 205.507812 204.078125 203.035156 C 205.011719 202.023438 205.191406 201.945312 206.402344 202.023438 L 207.710938 202.105469 L 207.785156 214.160156 M 235.011719 202.511719 C 233.367188 203.277344 233.238281 203.535156 234.304688 203.910156 C 235.164062 204.210938 235.289062 204.175781 235.871094 203.507812 C 236.484375 202.800781 236.722656 201.941406 236.292969 201.988281 C 236.175781 202 235.601562 202.234375 235.011719 202.511719 M 327.316406 203.371094 C 327.316406 204.21875 327.367188 204.566406 327.433594 204.140625 C 327.496094 203.71875 327.496094 203.023438 327.433594 202.597656 C 327.367188 202.171875 327.316406 202.519531 327.316406 203.371094 M 219.296875 203.003906 C 219.511719 203.292969 219.648438 204.378906 219.648438 205.777344 C 219.648438 208.554688 220.039062 209.207031 221.894531 209.546875 C 223.941406 209.921875 224.933594 209.621094 225.539062 208.453125 L 226.0625 207.441406 L 226.367188 208.230469 C 226.765625 209.265625 226.746094 210.386719 226.253906 214.460938 C 226.027344 216.3125 225.84375 217.921875 225.835938 218.039062 C 225.832031 218.15625 225.667969 218.25 225.476562 218.25 C 225.28125 218.25 224.460938 217.121094 223.652344 215.742188 C 221.984375 212.886719 218.992188 208.859375 215.878906 205.269531 C 214.707031 203.917969 213.75 202.667969 213.75 202.488281 C 213.75 201.9375 218.859375 202.410156 219.296875 203.003906 M 291.523438 203.265625 C 293.882812 203.957031 294.195312 204.128906 294.519531 204.894531 C 294.957031 205.941406 294.835938 206.179688 293.859375 206.171875 C 292.820312 206.164062 288.25 204.949219 287.882812 204.582031 C 287.707031 204.40625 287.664062 203.871094 287.777344 203.257812 C 287.921875 202.488281 288.085938 202.261719 288.429688 202.359375 C 288.683594 202.433594 290.074219 202.839844 291.523438 203.265625 M 92.542969 203.75 L 92.542969 204.832031 L 89.878906 205.503906 C 86.203125 206.433594 85.941406 206.414062 85.941406 205.210938 C 85.941406 204.679688 86.085938 204.15625 86.257812 204.050781 C 86.894531 203.65625 91.164062 202.558594 91.84375 202.613281 C 92.460938 202.660156 92.542969 202.796875 92.542969 203.75 M 151.601562 202.878906 C 151.539062 203.070312 151.191406 203.230469 150.828125 203.230469 C 150.46875 203.230469 150.121094 203.070312 150.058594 202.878906 C 149.980469 202.648438 150.242188 202.527344 150.828125 202.527344 C 151.417969 202.527344 151.679688 202.648438 151.601562 202.878906 M 240.597656 202.789062 C 239.523438 203 239.355469 203.582031 240.296875 203.816406 C 240.808594 203.945312 241.1875 203.863281 241.5 203.550781 C 242.097656 202.949219 241.65625 202.578125 240.597656 202.789062 M 136.785156 203.066406 C 136.785156 203.488281 134.40625 203.90625 125.410156 205.0625 C 117.691406 206.050781 100.515625 209.578125 97.390625 210.816406 C 96.871094 211.023438 96.695312 210.546875 97.179688 210.25 C 97.554688 210.015625 113.789062 206.363281 116.980469 205.792969 C 118.371094 205.542969 121.40625 205.070312 123.722656 204.738281 C 126.039062 204.410156 129.832031 203.847656 132.148438 203.496094 C 134.46875 203.144531 136.457031 202.847656 136.574219 202.832031 C 136.691406 202.820312 136.785156 202.925781 136.785156 203.066406 M 145.683594 203.109375 C 146.398438 203.378906 146.425781 203.4375 145.96875 203.695312 C 145.335938 204.046875 144.648438 203.808594 144.648438 203.238281 C 144.648438 202.726562 144.671875 202.722656 145.683594 203.109375 M 250.125 203.660156 C 263.796875 205.628906 274.378906 207.660156 281.726562 209.734375 C 283.453125 210.222656 284.152344 210.667969 283.183594 210.667969 C 282.414062 210.667969 277.015625 209.40625 275.292969 208.820312 C 274.59375 208.582031 273.066406 208.214844 271.902344 208 C 263.503906 206.457031 254.738281 205.003906 250.71875 204.488281 C 246.117188 203.894531 244.511719 203.554688 243.960938 203.050781 C 243.589844 202.714844 243.496094 202.707031 250.125 203.660156 M 314.390625 206.039062 C 314.394531 206.808594 314.449219 207.089844 314.511719 206.664062 C 314.578125 206.238281 314.574219 205.605469 314.507812 205.261719 C 314.441406 204.914062 314.390625 205.265625 314.390625 206.039062 M 179.761719 208.003906 C 179.761719 209.386719 178.214844 215.230469 177.066406 218.199219 C 176.507812 219.636719 176.007812 220.765625 175.949219 220.710938 C 175.894531 220.65625 176.207031 218.78125 176.648438 216.550781 C 177.089844 214.320312 177.738281 210.992188 178.089844 209.152344 C 178.726562 205.832031 178.734375 205.8125 179.246094 206.445312 C 179.53125 206.796875 179.761719 207.496094 179.761719 208.003906 M 314.105469 208.703125 C 314.105469 209.398438 314.160156 209.683594 314.226562 209.335938 C 314.292969 208.988281 314.292969 208.421875 314.226562 208.074219 C 314.160156 207.726562 314.105469 208.007812 314.105469 208.703125 M 232.230469 208.578125 C 232.710938 208.816406 233.175781 209.238281 233.261719 209.511719 C 233.410156 209.984375 232.71875 218.664062 232.40625 220.203125 C 231.65625 223.925781 230.828125 225.195312 229.390625 224.835938 C 227.898438 224.460938 227.695312 223.882812 228.085938 221.140625 C 228.324219 219.472656 228.378906 217.144531 228.261719 213.960938 C 228.0625 208.675781 227.851562 209.277344 230.183594 208.488281 C 231.339844 208.097656 231.257812 208.09375 232.230469 208.578125 M 159.085938 208.851562 C 157.769531 209.429688 156.730469 209.644531 156.730469 209.335938 C 156.730469 209.1875 157.265625 208.9375 157.921875 208.777344 C 159.609375 208.371094 160.109375 208.402344 159.085938 208.851562 M 326.691406 209.710938 C 326.707031 210.039062 326.773438 210.105469 326.863281 209.878906 C 326.941406 209.675781 326.933594 209.433594 326.839844 209.34375 C 326.746094 209.25 326.679688 209.414062 326.691406 209.710938 M 101.164062 212.519531 C 101.484375 214.828125 101.953125 224.945312 102.132812 233.550781 C 102.332031 243.0625 101.945312 247.214844 100.601562 249.945312 C 99.765625 251.640625 99.265625 251.84375 99.324219 250.460938 C 99.34375 249.960938 99.5 246.835938 99.671875 243.519531 C 100.113281 234.933594 100.0625 227.132812 99.519531 220.789062 C 99.261719 217.769531 99.039062 214.484375 99.027344 213.488281 C 99.007812 211.824219 99.0625 211.644531 99.707031 211.316406 C 100.726562 210.796875 100.949219 210.976562 101.164062 212.519531 M 148.015625 221.324219 C 148.476562 223.035156 149.449219 224.234375 150.644531 224.570312 C 151.691406 224.863281 151.699219 224.878906 151.152344 225.371094 C 150.820312 225.671875 150.28125 225.835938 149.804688 225.78125 C 149.175781 225.710938 148.878906 225.421875 148.398438 224.425781 C 147.527344 222.625 146.941406 219.984375 146.617188 216.425781 C 146.132812 211.082031 146.367188 210.617188 147.0625 215.542969 C 147.433594 218.144531 147.863281 220.746094 148.015625 221.324219 M 280.539062 211.25 C 281.011719 211.414062 281.464844 211.722656 281.546875 211.933594 C 281.628906 212.144531 281.519531 214.1875 281.304688 216.476562 C 280.660156 223.339844 280.246094 232.789062 280.441406 236.078125 C 280.660156 239.714844 281.542969 246.234375 282.183594 248.933594 C 282.664062 250.960938 282.554688 251.542969 281.859375 250.65625 C 280.425781 248.835938 279.546875 245.925781 278.46875 239.445312 C 278.082031 237.125 278.035156 235.546875 278.1875 230.324219 C 278.40625 222.914062 279.28125 210.949219 279.605469 210.949219 C 279.644531 210.949219 280.066406 211.085938 280.539062 211.25 M 326.152344 215.160156 C 326.152344 215.546875 326.214844 215.707031 326.292969 215.511719 C 326.371094 215.320312 326.371094 215.003906 326.292969 214.8125 C 326.214844 214.617188 326.152344 214.777344 326.152344 215.160156 M 157.667969 217.335938 C 156.179688 220.589844 155.542969 223.285156 155.527344 226.390625 C 155.496094 233.183594 158.566406 237.875 163.386719 238.398438 L 165.015625 238.574219 L 163.75 238.804688 C 160.476562 239.402344 158.164062 238.140625 156.460938 234.8125 C 154.125 230.257812 153.945312 225.523438 155.902344 220.117188 C 156.664062 218.015625 158.175781 215.160156 158.53125 215.160156 C 158.605469 215.160156 158.214844 216.140625 157.667969 217.335938 M 184.96875 216.601562 C 185.117188 217.070312 184.445312 218.261719 181.90625 222.015625 C 180.113281 224.664062 178.121094 227.332031 177.480469 227.945312 C 176.835938 228.558594 176.410156 228.871094 176.535156 228.636719 C 177.542969 226.761719 184.363281 216.003906 184.546875 216.003906 C 184.675781 216.003906 184.867188 216.273438 184.96875 216.601562 M 199.984375 222.085938 C 204.617188 229.507812 204.894531 230.027344 203.234375 228.214844 C 201.949219 226.8125 198.375 221.902344 196.671875 219.207031 C 195.851562 217.90625 195.441406 215.996094 195.984375 216.007812 C 196.097656 216.011719 197.902344 218.746094 199.984375 222.085938 M 325.890625 217.125 C 325.890625 217.667969 325.949219 217.886719 326.019531 217.617188 C 326.089844 217.347656 326.089844 216.90625 326.019531 216.636719 C 325.949219 216.367188 325.890625 216.585938 325.890625 217.125 M 154.007812 219.722656 C 154.109375 221.207031 154.066406 222.179688 153.90625 222.179688 C 153.757812 222.179688 153.640625 221.046875 153.640625 219.605469 C 153.640625 218.191406 153.683594 217.085938 153.742188 217.148438 C 153.796875 217.214844 153.917969 218.371094 154.007812 219.722656 M 95.492188 217.792969 C 95.492188 218.007812 95.335938 218.3125 95.140625 218.472656 C 94.589844 218.929688 89.671875 219.996094 89.042969 219.796875 C 87.828125 219.410156 88.40625 219.042969 91.84375 218.007812 C 94.074219 217.339844 95.492188 217.253906 95.492188 217.792969 M 288.960938 218.148438 C 290.859375 218.640625 291.839844 219.027344 291.839844 219.285156 C 291.839844 219.984375 291.015625 220.007812 288.320312 219.386719 C 285.761719 218.796875 284.632812 218.214844 284.972656 217.664062 C 285.21875 217.265625 285.851562 217.34375 288.960938 218.148438 M 299.890625 222.8125 C 299.8125 223.003906 299.75 222.847656 299.75 222.460938 C 299.75 222.074219 299.8125 221.917969 299.890625 222.109375 C 299.96875 222.304688 299.96875 222.621094 299.890625 222.8125 M 299.613281 223.917969 C 299.523438 224.140625 299.457031 224.074219 299.445312 223.746094 C 299.433594 223.453125 299.5 223.285156 299.59375 223.378906 C 299.6875 223.472656 299.695312 223.714844 299.613281 223.917969 M 148 233.105469 C 147.535156 234.546875 146.96875 236.609375 146.742188 237.6875 C 146.515625 238.761719 146.199219 239.851562 146.039062 240.109375 C 145.609375 240.792969 146 237.945312 146.648438 235.683594 C 147.191406 233.785156 148.601562 230.246094 148.753906 230.402344 C 148.804688 230.449219 148.460938 231.667969 148 233.105469 M 230.921875 231.886719 C 231.523438 232.195312 232.03125 232.871094 232.640625 234.171875 C 233.59375 236.210938 234.597656 240.078125 234.234375 240.300781 C 234.105469 240.382812 233.683594 240.367188 233.292969 240.269531 C 232.367188 240.035156 232.15625 240.527344 231.472656 244.5 C 230.820312 248.316406 230.039062 251.378906 229.722656 251.378906 C 229.339844 251.378906 227.828125 249.683594 227.628906 249.03125 C 227.527344 248.699219 227.191406 247.863281 226.878906 247.167969 C 225.65625 244.449219 225.285156 238.34375 226.136719 235.039062 C 226.46875 233.746094 227.632812 232.332031 228.765625 231.839844 C 229.863281 231.363281 229.910156 231.363281 230.921875 231.886719 M 297.929688 232.058594 C 297.839844 232.285156 297.773438 232.21875 297.761719 231.890625 C 297.746094 231.59375 297.8125 231.429688 297.90625 231.519531 C 298 231.613281 298.011719 231.855469 297.929688 232.058594 M 297.648438 233.183594 C 297.558594 233.40625 297.492188 233.339844 297.480469 233.011719 C 297.46875 232.71875 297.53125 232.550781 297.625 232.644531 C 297.71875 232.738281 297.730469 232.980469 297.648438 233.183594 M 297.316406 235.09375 C 297.210938 235.582031 297.058594 235.914062 296.980469 235.835938 C 296.90625 235.761719 296.929688 235.300781 297.035156 234.8125 C 297.140625 234.328125 297.292969 233.996094 297.371094 234.074219 C 297.445312 234.148438 297.421875 234.609375 297.316406 235.09375 M 296.769531 237.496094 C 296.664062 238.058594 296.507812 238.453125 296.421875 238.367188 C 296.335938 238.28125 296.351562 237.75 296.457031 237.183594 C 296.5625 236.621094 296.71875 236.230469 296.804688 236.316406 C 296.890625 236.402344 296.875 236.933594 296.769531 237.496094 M 295.964844 239.921875 C 295.875 240.144531 295.808594 240.078125 295.792969 239.75 C 295.78125 239.453125 295.847656 239.289062 295.941406 239.382812 C 296.035156 239.476562 296.042969 239.71875 295.964844 239.921875 M 145.683594 241.324219 C 145.59375 241.546875 145.527344 241.480469 145.515625 241.15625 C 145.503906 240.859375 145.570312 240.691406 145.664062 240.785156 C 145.753906 240.878906 145.765625 241.121094 145.683594 241.324219 M 235.238281 241.488281 C 235.703125 241.722656 236.972656 242.8125 238.058594 243.910156 C 240.84375 246.71875 242.382812 249.855469 243.539062 255.089844 C 243.996094 257.175781 243.78125 260.527344 242.695312 268.082031 C 242.226562 271.328125 241.84375 274.160156 241.84375 274.378906 C 241.832031 275.691406 241.441406 273.789062 240.714844 268.894531 C 239.304688 259.371094 237.976562 252.890625 237.347656 252.503906 C 237.210938 252.417969 236.472656 250.449219 235.707031 248.125 C 234.941406 245.800781 233.992188 243.261719 233.597656 242.480469 C 233.199219 241.699219 232.957031 240.980469 233.054688 240.882812 C 233.261719 240.671875 234.066406 240.894531 235.238281 241.488281 M 164.578125 243.773438 C 164.242188 244.550781 163.429688 245.683594 162.773438 246.289062 C 162.121094 246.894531 161.039062 248.160156 160.378906 249.101562 C 159.214844 250.757812 158.308594 251.449219 156.632812 251.957031 C 155.960938 252.15625 155.890625 252.132812 156.171875 251.796875 C 156.351562 251.574219 156.914062 251.246094 157.417969 251.0625 C 158.082031 250.824219 158.636719 250.242188 159.425781 248.960938 C 160.027344 247.984375 160.671875 247.183594 160.859375 247.175781 C 161.28125 247.164062 163.148438 244.953125 163.894531 243.578125 C 164.808594 241.894531 164.96875 241.6875 165.082031 242.039062 C 165.140625 242.210938 164.914062 242.992188 164.578125 243.773438 M 220.53125 245.4375 C 221.511719 245.878906 222.945312 246.480469 223.714844 246.777344 C 224.746094 247.179688 225.390625 247.6875 226.171875 248.71875 C 226.753906 249.488281 227.230469 250.328125 227.230469 250.585938 C 227.234375 251.089844 228.949219 253.0625 229.386719 253.0625 C 229.722656 253.0625 232.40625 249.015625 232.914062 247.746094 L 233.300781 246.777344 L 233.941406 247.816406 C 234.292969 248.386719 234.730469 248.851562 234.910156 248.851562 C 235.339844 248.855469 236.125 250.796875 236.613281 253.070312 C 236.828125 254.070312 237.207031 255.773438 237.453125 256.851562 C 237.960938 259.097656 241.277344 281.535156 241.476562 284.085938 C 241.585938 285.496094 241.515625 285.867188 241.046875 286.363281 C 240.410156 287.039062 235.957031 289.667969 235.769531 289.480469 C 235.488281 289.203125 234.820312 284.386719 234.546875 280.71875 C 234.386719 278.554688 234.253906 273.753906 234.25 270.050781 C 234.242188 266.101562 234.136719 263.484375 233.996094 263.730469 C 233.550781 264.5 232.5625 274.128906 232.261719 280.667969 C 232.171875 282.613281 229.8125 266.777344 229.5625 262.539062 C 229.472656 261.035156 229.304688 259.800781 229.1875 259.800781 C 229.074219 259.800781 228.902344 259.496094 228.808594 259.125 C 228.632812 258.429688 226.210938 255.386719 224.335938 253.515625 C 223.746094 252.925781 223.332031 252.378906 223.414062 252.292969 C 223.496094 252.210938 223.335938 251.8125 223.054688 251.410156 C 222.773438 251.007812 222.054688 249.792969 221.457031 248.714844 C 220.855469 247.632812 219.9375 246.277344 219.414062 245.695312 C 218.890625 245.117188 218.523438 244.640625 218.601562 244.640625 C 218.679688 244.640625 219.546875 245 220.53125 245.4375 M 145.765625 248.675781 C 146.214844 249.125 146.109375 249.414062 145.5 249.414062 C 144.777344 249.414062 144.519531 248.363281 144.640625 245.902344 C 144.691406 244.847656 144.71875 244.886719 145.085938 246.585938 C 145.300781 247.574219 145.605469 248.515625 145.765625 248.675781 M 220.902344 254.066406 C 222.496094 256.546875 224.0625 259.09375 224.382812 259.722656 C 225.257812 261.433594 226.054688 264.585938 226.421875 267.773438 C 226.71875 270.332031 226.691406 270.949219 226.144531 274.058594 C 225.8125 275.957031 225.390625 277.75 225.207031 278.042969 C 224.597656 279.015625 222.933594 279.546875 220.972656 279.390625 C 217.480469 279.109375 214.492188 276.980469 212.828125 273.582031 L 211.925781 271.734375 L 211.925781 266.960938 C 211.925781 263.238281 212.039062 261.722656 212.449219 260.082031 C 213.160156 257.226562 215.25 250.371094 215.824219 249.015625 L 216.289062 247.914062 L 217.148438 248.734375 C 217.621094 249.183594 219.308594 251.585938 220.902344 254.066406 M 140.949219 265.597656 C 139.820312 272.367188 138.851562 277.660156 138.792969 277.359375 C 138.628906 276.496094 139.300781 270.179688 140.050781 265.570312 C 140.761719 261.214844 142.640625 252.929688 142.871094 253.15625 C 142.941406 253.226562 142.078125 258.828125 140.949219 265.597656 M 167.796875 257.976562 C 167.933594 258.78125 167.902344 258.980469 167.699219 258.679688 C 167.539062 258.445312 167.410156 257.890625 167.40625 257.4375 C 167.402344 256.359375 167.5625 256.582031 167.796875 257.976562 M 168.5 270.402344 C 168.019531 275.4375 166.578125 278.644531 163.089844 282.429688 C 161.4375 284.226562 159.078125 286.191406 158.582031 286.191406 C 158.5 286.191406 159.414062 285.214844 160.613281 284.015625 C 164.914062 279.730469 166.808594 275.695312 167.828125 268.644531 C 168.050781 267.101562 168.253906 265.144531 168.28125 264.292969 C 168.320312 262.941406 168.355469 263.042969 168.550781 265.136719 C 168.679688 266.496094 168.65625 268.761719 168.5 270.402344 M 146.792969 268.152344 C 146.699219 270.738281 146.542969 275.066406 146.449219 277.769531 C 146.351562 280.472656 146.226562 282.734375 146.164062 282.800781 C 146 282.972656 146.03125 277.878906 146.238281 270.234375 C 146.347656 266.242188 146.535156 263.453125 146.691406 263.453125 C 146.859375 263.453125 146.898438 265.234375 146.792969 268.152344 M 95.222656 264.164062 C 95.433594 264.421875 95.476562 264.691406 95.328125 264.828125 C 94.886719 265.226562 87.21875 267.101562 86.027344 267.101562 C 85.402344 267.101562 84.746094 266.929688 84.570312 266.71875 C 84.308594 266.402344 84.800781 266.175781 87.273438 265.457031 C 93.777344 263.574219 94.621094 263.4375 95.222656 264.164062 M 289.125 264.304688 C 292.507812 265.148438 296.050781 266.292969 296.050781 266.542969 C 296.050781 266.871094 295.277344 267.101562 294.167969 267.101562 C 293.042969 267.101562 285.65625 265.230469 285.261719 264.847656 C 284.90625 264.496094 285.601562 263.730469 286.277344 263.730469 C 286.582031 263.730469 287.863281 263.988281 289.125 264.304688 M 151.980469 267.65625 C 151.8125 268.445312 151.660156 271.203125 151.644531 273.78125 C 151.625 276.785156 151.535156 278.117188 151.394531 277.488281 C 150.730469 274.550781 150.859375 269.902344 151.6875 267.003906 C 152.125 265.460938 152.347656 265.949219 151.980469 267.65625 M 83.632812 266.976562 C 83.976562 267.21875 84.257812 267.515625 84.257812 267.644531 C 84.257812 267.769531 83.40625 268.097656 82.363281 268.371094 C 73.335938 270.722656 73.222656 270.742188 72.304688 270.074219 C 71.78125 269.6875 71.785156 269.667969 72.476562 269.351562 C 73.15625 269.042969 82.113281 266.601562 82.71875 266.558594 C 82.878906 266.546875 83.289062 266.734375 83.632812 266.976562 M 299.5625 267.164062 C 300.335938 267.398438 302.53125 267.949219 304.4375 268.390625 C 306.347656 268.828125 308.117188 269.339844 308.371094 269.527344 C 308.78125 269.828125 308.734375 269.90625 307.992188 270.195312 C 307.261719 270.480469 306.417969 270.34375 301.742188 269.199219 C 298.765625 268.472656 296.332031 267.773438 296.332031 267.644531 C 296.332031 267.308594 297.542969 266.515625 297.875 266.636719 C 298.03125 266.691406 298.789062 266.929688 299.5625 267.164062 M 71.210938 270.3125 C 71.574219 270.578125 71.664062 270.804688 71.476562 270.984375 C 70.664062 271.773438 63.949219 273.277344 61.25 273.277344 C 59.558594 273.277344 58.949219 272.917969 60.171875 272.636719 C 60.519531 272.558594 61.941406 272.148438 63.332031 271.730469 C 69.695312 269.8125 70.375 269.691406 71.210938 270.3125 M 314.332031 270.878906 C 320.269531 272.527344 321.042969 272.78125 320.886719 273.035156 C 320.496094 273.667969 314.710938 272.972656 311.089844 271.855469 C 309.109375 271.246094 308.75 270.9375 309.265625 270.316406 C 309.757812 269.722656 310.449219 269.800781 314.332031 270.878906 M 327.832031 274.566406 C 330.746094 275.273438 333.203125 275.980469 333.300781 276.132812 C 333.628906 276.664062 332.820312 277.066406 331.5 277.035156 C 330.285156 277.003906 323.027344 274.984375 321.773438 274.328125 C 321.246094 274.054688 321.246094 274.035156 321.757812 273.660156 C 322.046875 273.449219 322.339844 273.277344 322.410156 273.277344 C 322.480469 273.277344 324.921875 273.855469 327.832031 274.566406 M 59.183594 274.035156 C 59.300781 274.386719 56.878906 275.199219 51.828125 276.492188 C 48.480469 277.347656 48.269531 277.359375 47.425781 276.671875 L 46.765625 276.140625 L 48.375 275.671875 C 55.101562 273.71875 58.890625 273.144531 59.183594 274.035156 M 46.429688 277.054688 C 46.929688 277.433594 46.929688 277.453125 46.429688 277.710938 C 43.902344 279.015625 34.820312 280.402344 34.820312 279.480469 C 34.820312 279.246094 44.554688 276.683594 45.496094 276.671875 C 45.726562 276.667969 46.148438 276.839844 46.429688 277.054688 M 339.753906 277.773438 C 344.929688 279.042969 345.769531 279.316406 345.769531 279.726562 C 345.769531 280.382812 341.964844 280.023438 338.449219 279.035156 C 336.527344 278.496094 334.742188 278.054688 334.480469 278.054688 C 333.753906 278.046875 333.574219 277.5 334.15625 277.058594 C 334.441406 276.839844 334.78125 276.660156 334.910156 276.65625 C 335.042969 276.652344 337.21875 277.152344 339.753906 277.773438 M 231.445312 285.859375 C 232.40625 288.378906 233.144531 290.480469 233.089844 290.527344 C 232.808594 290.78125 228.898438 291.5 228.542969 291.363281 C 228.121094 291.203125 227.671875 290.289062 227.363281 288.96875 C 227.167969 288.136719 229.289062 280.839844 229.621094 281.191406 C 229.667969 281.238281 230.488281 283.339844 231.445312 285.859375 M 150.679688 295.597656 C 149.726562 298.339844 149.707031 298.367188 149.839844 296.878906 C 149.960938 295.472656 151.386719 291.898438 151.574219 292.519531 C 151.621094 292.667969 151.21875 294.054688 150.679688 295.597656 M 139.03125 296.113281 C 139.03125 296.460938 136.710938 294.53125 136.550781 294.054688 C 136.484375 293.847656 137.011719 294.167969 137.730469 294.769531 C 138.445312 295.367188 139.03125 295.972656 139.03125 296.113281 M 243.742188 294.644531 C 242.539062 295.433594 240.714844 297.667969 240.714844 298.359375 C 240.714844 298.511719 240.644531 298.566406 240.558594 298.480469 C 240.296875 298.21875 241.261719 296.207031 242.066406 295.351562 C 242.773438 294.597656 244.15625 293.804688 244.789062 293.785156 C 244.945312 293.78125 244.472656 294.167969 243.742188 294.644531 M 150.707031 325.355469 C 150.472656 326.617188 150.007812 326.925781 148.011719 327.164062 C 145.984375 327.402344 145.597656 327.140625 147.300781 326.683594 C 148.785156 326.289062 150.132812 325.199219 150.421875 324.164062 C 150.59375 323.550781 150.664062 323.496094 150.761719 323.910156 C 150.828125 324.195312 150.804688 324.847656 150.707031 325.355469 M 231.5 326.113281 C 231.859375 326.3125 232.527344 326.640625 232.992188 326.835938 C 233.769531 327.160156 233.707031 327.179688 232.15625 327.058594 C 230.230469 326.910156 229.761719 326.496094 229.761719 324.953125 L 229.761719 323.953125 L 230.308594 324.847656 C 230.609375 325.339844 231.144531 325.910156 231.5 326.113281 " fill-opacity="1" fill-rule="evenodd"/></g></svg>